<svg xmlns="http://www.w3.org/2000/svg" viewBox="0 0 155 107">
  <g fill="none" fill-rule="nonzero">
    <path fill="#0275D8" d="M140.996 10A3.995 3.995 0 01145 13.995v30.01A3.992 3.992 0 01140.996 48H14.004A3.995 3.995 0 0110 44.005v-30.01A3.992 3.992 0 0114.004 10h126.992zm0 1H14.004a2.992 2.992 0 00-2.999 2.818l-.005.177v30.01a2.994 2.994 0 002.827 2.99l.177.005h126.992a2.992 2.992 0 002.999-2.818l.005-.177v-30.01a2.994 2.994 0 00-2.827-2.99l-.177-.005z"/>
    <path fill="#0275D8" d="M31.305 34c3.351 0 5.32-2.086 5.32-5.64 0-3.547-1.977-5.633-5.32-5.633h-3.867V34h3.867zm-.094-1.266h-2.367v-8.742h2.367c2.5 0 3.977 1.625 3.977 4.383 0 2.75-1.461 4.36-3.977 4.36zm11.14 1.414c2.399 0 3.883-1.656 3.883-4.359 0-2.71-1.484-4.36-3.882-4.36-2.399 0-3.883 1.65-3.883 4.36 0 2.703 1.484 4.36 3.883 4.36zm0-1.21c-1.593 0-2.492-1.157-2.492-3.149 0-2 .899-3.148 2.493-3.148 1.593 0 2.492 1.148 2.492 3.148 0 1.992-.899 3.148-2.492 3.148zM51.017 34l1.875-6.516h.125L54.898 34h1.368l2.359-8.422h-1.352l-1.656 6.735h-.125l-1.883-6.735H52.32l-1.883 6.735h-.124l-1.657-6.735h-1.36L49.657 34h1.36zm10.75 0v-4.984c0-1.477.867-2.375 2.21-2.375 1.344 0 1.985.718 1.985 2.234V34h1.344v-5.453c0-2-1.055-3.117-2.946-3.117-1.289 0-2.109.547-2.53 1.476h-.126v-1.328h-1.281V34h1.344zm9.414 0V22.234h-1.344V34h1.344zm6.07.148c2.398 0 3.883-1.656 3.883-4.359 0-2.71-1.485-4.36-3.883-4.36-2.398 0-3.883 1.65-3.883 4.36 0 2.703 1.485 4.36 3.883 4.36zm0-1.21c-1.594 0-2.492-1.157-2.492-3.149 0-2 .898-3.148 2.492-3.148 1.594 0 2.492 1.148 2.492 3.148 0 1.992-.898 3.148-2.492 3.148zm8.336 1.21c1.125 0 2.047-.492 2.594-1.39h.125V34h1.28v-5.766c0-1.75-1.147-2.804-3.202-2.804-1.797 0-3.125.89-3.305 2.242h1.36c.187-.664.89-1.047 1.898-1.047 1.258 0 1.906.57 1.906 1.61V29l-2.43.148c-1.96.118-3.07.985-3.07 2.493 0 1.539 1.211 2.507 2.844 2.507zm.25-1.18c-.977 0-1.703-.5-1.703-1.359 0-.843.562-1.289 1.844-1.375l2.265-.148v.773c0 1.203-1.023 2.11-2.406 2.11zm9.352 1.18c1.164 0 2.164-.554 2.695-1.492h.125V34h1.281V22.234h-1.344v4.672h-.117c-.476-.922-1.469-1.476-2.64-1.476-2.141 0-3.54 1.718-3.54 4.36 0 2.648 1.383 4.358 3.54 4.358zm.312-1.21c-1.54 0-2.46-1.18-2.46-3.149 0-1.96.929-3.148 2.46-3.148 1.523 0 2.477 1.218 2.477 3.148 0 1.945-.946 3.148-2.477 3.148zM121.992 21a.571.571 0 00-.563.571v10.052l-3.592-3.594a.571.571 0 00-.807.808l4.567 4.57a.09.09 0 00.006.005l.001.001a.563.563 0 00.018.017l.024.02v.002l.016.01.001.002.027.019.003.001a.269.269 0 00.02.013l.003.001.023.013.003.002a.165.165 0 00.02.01h.004l.023.011.004.002.025.009h.004a.388.388 0 00.02.008h.004l.026.007h.003a.228.228 0 00.024.006h.003a.356.356 0 00.025.004h.003a.314.314 0 00.027.003h.031l.014.001h.014a.557.557 0 00.05-.004h-.002.007-.003a.527.527 0 00.039-.006h-.004l.031-.006h-.004a.452.452 0 00.026-.006l-.004.001.038-.011h-.004l.024-.008-.003.001a.332.332 0 00.033-.014l-.003.001a.813.813 0 00.046-.023l-.003.002.004-.003-.002.002a.473.473 0 00.034-.022l-.002.002.024-.017-.001.001a.656.656 0 00.037-.03l.003-.003.027-.023 4.566-4.57a.57.57 0 00-.398-.98h-.017a.57.57 0 00-.392.172l-3.592 3.595V21.58v-.008a.57.57 0 00-.57-.571h-.01V21zm-7.413 14.858h-.008a.57.57 0 100 1.142H129.429a.57.57 0 100-1.142h-14.85z"/>
    <path fill="#D73038" d="M52.392 106.038c.628 0 1.149-.527 1.149-1.174 0-.641-.521-1.168-1.15-1.168-.628 0-1.148.527-1.148 1.168 0 .647.52 1.174 1.149 1.174zm8.467.076c1.594 0 2.635-1.149 2.635-2.92v-1.282c0-1.765-1.041-2.913-2.635-2.913-.996 0-1.726.425-2.03 1.18h-.115v-3.77h-1.098V106h1.06v-1.054h.12c.356.762 1.08 1.168 2.063 1.168zm-.317-.984c-1.13 0-1.854-.812-1.854-2.088v-.99c0-1.27.724-2.082 1.854-2.082 1.143 0 1.866.812 1.866 2.082v.99c0 1.27-.723 2.088-1.866 2.088zm7.414.997c1.047 0 1.835-.482 2.203-1.34h.089V106h1.034v-6.887h-1.079v4.056c0 1.174-.762 1.968-1.898 1.968-1.073 0-1.58-.584-1.58-1.828v-4.196h-1.08v4.469c0 1.65.813 2.545 2.311 2.545zm9.87-.095c.33 0 1.169-.032 1.34-.064v-.914c-.184.02-.876.038-1.263.038-.971 0-1.498-.406-1.498-1.155v-3.885h2.78v-.92h-2.793v-1.866h-1.066v1.866H73.49v.92h1.835v3.898c0 1.434.793 2.082 2.5 2.082zm8.037 0c.33 0 1.168-.032 1.34-.064v-.914c-.185.02-.877.038-1.264.038-.971 0-1.498-.406-1.498-1.155v-3.885h2.78v-.92h-2.793v-1.866h-1.066v1.866h-1.835v.92h1.835v3.898c0 1.434.793 2.082 2.5 2.082zm6.71.095c1.821 0 2.983-1.187 2.983-3.047v-1.04c0-1.86-1.162-3.048-2.984-3.048s-2.983 1.187-2.983 3.047v1.041c0 1.86 1.161 3.047 2.983 3.047zm0-.959c-1.181 0-1.918-.831-1.918-2.19v-.844c0-1.352.737-2.19 1.917-2.19 1.18 0 1.917.838 1.917 2.19v.845c0 1.358-.736 2.19-1.917 2.19zm6.296.832v-4.056c0-1.174.762-1.968 1.898-1.968 1.073 0 1.58.584 1.58 1.828V106h1.08v-4.469c0-1.65-.813-2.545-2.31-2.545-1.048 0-1.835.482-2.203 1.34h-.09v-1.213H97.79V106h1.08z"/>
    <path fill="#9F9F9F" d="M75.872 53.77l1-.006.256 39.233-1 .006z"/>
  </g>
</svg>
