<svg xmlns="http://www.w3.org/2000/svg" viewBox="0 0 500 155">
  <g fill="none" fill-rule="evenodd" transform="translate(13.134 13)">
    <path fill="#0275D8" fill-rule="nonzero" d="M317.862 0a3.995 3.995 0 014.004 3.995v30.01A3.992 3.992 0 01317.862 38H190.87a3.995 3.995 0 01-4.003-3.995V3.995A3.992 3.992 0 01190.869 0h126.993zm0 1H190.87a2.992 2.992 0 00-2.998 2.818l-.005.177v30.01a2.994 2.994 0 002.827 2.99l.176.005h126.993a2.992 2.992 0 002.999-2.818l.005-.177V3.995a2.994 2.994 0 00-2.827-2.99L317.862 1z"/>
    <path fill="#0275D8" fill-rule="nonzero" d="M208.17 24c3.352 0 5.32-2.086 5.32-5.64 0-3.547-1.976-5.633-5.32-5.633h-3.867V24h3.867zm-.093-1.266h-2.368v-8.742h2.368c2.5 0 3.976 1.625 3.976 4.383 0 2.75-1.46 4.36-3.976 4.36zm11.14 1.414c2.399 0 3.883-1.656 3.883-4.359 0-2.71-1.484-4.36-3.883-4.36-2.398 0-3.883 1.65-3.883 4.36 0 2.703 1.485 4.36 3.883 4.36zm0-1.21c-1.593 0-2.492-1.157-2.492-3.149 0-2 .899-3.148 2.492-3.148 1.594 0 2.492 1.148 2.492 3.148 0 1.992-.898 3.148-2.492 3.148zM227.881 24l1.875-6.516h.125L231.764 24h1.367l2.36-8.422h-1.352l-1.656 6.735h-.125l-1.883-6.735h-1.289l-1.883 6.735h-.125l-1.656-6.735h-1.36l2.36 8.422h1.36zm10.75 0v-4.984c0-1.477.868-2.375 2.211-2.375 1.344 0 1.985.718 1.985 2.234V24h1.343v-5.453c0-2-1.054-3.117-2.945-3.117-1.289 0-2.11.547-2.531 1.476h-.125v-1.328h-1.281V24h1.343zm9.414 0V12.234h-1.343V24h1.343zm6.07.148c2.4 0 3.884-1.656 3.884-4.359 0-2.71-1.485-4.36-3.883-4.36-2.399 0-3.883 1.65-3.883 4.36 0 2.703 1.484 4.36 3.883 4.36zm0-1.21c-1.593 0-2.491-1.157-2.491-3.149 0-2 .898-3.148 2.492-3.148 1.593 0 2.492 1.148 2.492 3.148 0 1.992-.899 3.148-2.492 3.148zm8.337 1.21c1.125 0 2.047-.492 2.593-1.39h.125V24h1.282v-5.766c0-1.75-1.149-2.804-3.203-2.804-1.797 0-3.125.89-3.305 2.242h1.36c.187-.664.89-1.047 1.898-1.047 1.257 0 1.906.57 1.906 1.61V19l-2.43.148c-1.96.118-3.07.985-3.07 2.493 0 1.539 1.21 2.507 2.844 2.507zm.25-1.18c-.977 0-1.703-.5-1.703-1.359 0-.843.562-1.289 1.843-1.375l2.266-.148v.773c0 1.203-1.024 2.11-2.406 2.11zm9.351 1.18c1.164 0 2.164-.554 2.696-1.492h.125V24h1.28V12.234h-1.343v4.672h-.117c-.477-.922-1.469-1.476-2.64-1.476-2.141 0-3.54 1.718-3.54 4.36 0 2.648 1.383 4.358 3.54 4.358zm.313-1.21c-1.54 0-2.461-1.18-2.461-3.149 0-1.96.93-3.148 2.46-3.148 1.524 0 2.477 1.218 2.477 3.148 0 1.945-.945 3.148-2.476 3.148zM298.857 11a.571.571 0 00-.562.571v10.052l-3.593-3.594a.571.571 0 00-.807.808l4.568 4.57.006.005.001.001.018.017.024.02v.002l.016.01.001.002.027.019.003.001a.269.269 0 00.02.013l.002.001.024.013.003.002a.165.165 0 00.02.01h.004l.023.011.003.002.026.009h.004l.02.008h.004l.025.007h.004a.228.228 0 00.023.006h.004a.356.356 0 00.024.004h.003a.314.314 0 00.027.003h.032l.013.001h.015a.556.556 0 00.05-.004h-.002.007-.004a.527.527 0 00.04-.006h-.004l.031-.006h-.004a.452.452 0 00.025-.006l-.004.001.038-.011h-.004l.025-.008-.004.001a.332.332 0 00.034-.014l-.004.001a.813.813 0 00.047-.023l-.003.002.003-.003-.002.002a.473.473 0 00.035-.022l-.002.002.024-.017-.002.001a.656.656 0 00.038-.03l.003-.003.026-.023 4.567-4.57a.57.57 0 00-.398-.98h-.017a.57.57 0 00-.392.172l-3.592 3.595V11.58v-.008a.57.57 0 00-.571-.571h-.009V11zm-7.412 14.858h-.008a.57.57 0 100 1.142H306.295a.57.57 0 100-1.142h-14.85z"/>
    <rect width="135" height="38" x="341.866" fill="#0275D8" rx="4"/>
    <path fill="#F6F8FA" fill-rule="nonzero" d="M363.17 24c3.352 0 5.32-2.086 5.32-5.64 0-3.547-1.976-5.633-5.32-5.633h-3.867V24h3.867zm-.093-1.266h-2.368v-8.742h2.368c2.5 0 3.976 1.625 3.976 4.383 0 2.75-1.46 4.36-3.976 4.36zm11.14 1.414c2.399 0 3.883-1.656 3.883-4.359 0-2.71-1.484-4.36-3.883-4.36-2.398 0-3.883 1.65-3.883 4.36 0 2.703 1.485 4.36 3.883 4.36zm0-1.21c-1.593 0-2.492-1.157-2.492-3.149 0-2 .899-3.148 2.492-3.148 1.594 0 2.492 1.148 2.492 3.148 0 1.992-.898 3.148-2.492 3.148zM382.881 24l1.875-6.516h.125L386.764 24h1.367l2.36-8.422h-1.352l-1.656 6.735h-.125l-1.883-6.735h-1.289l-1.883 6.735h-.125l-1.656-6.735h-1.36l2.36 8.422h1.36zm10.75 0v-4.984c0-1.477.868-2.375 2.211-2.375 1.344 0 1.985.718 1.985 2.234V24h1.343v-5.453c0-2-1.054-3.117-2.945-3.117-1.289 0-2.11.547-2.531 1.476h-.125v-1.328h-1.281V24h1.343zm9.414 0V12.234h-1.343V24h1.343zm6.07.148c2.4 0 3.884-1.656 3.884-4.359 0-2.71-1.485-4.36-3.883-4.36-2.399 0-3.883 1.65-3.883 4.36 0 2.703 1.484 4.36 3.883 4.36zm0-1.21c-1.593 0-2.491-1.157-2.491-3.149 0-2 .898-3.148 2.492-3.148 1.593 0 2.492 1.148 2.492 3.148 0 1.992-.899 3.148-2.492 3.148zm8.337 1.21c1.125 0 2.047-.492 2.593-1.39h.125V24h1.282v-5.766c0-1.75-1.149-2.804-3.203-2.804-1.797 0-3.125.89-3.305 2.242h1.36c.187-.664.89-1.047 1.898-1.047 1.257 0 1.906.57 1.906 1.61V19l-2.43.148c-1.96.118-3.07.985-3.07 2.493 0 1.539 1.21 2.507 2.844 2.507zm.25-1.18c-.977 0-1.703-.5-1.703-1.359 0-.843.562-1.289 1.843-1.375l2.266-.148v.773c0 1.203-1.024 2.11-2.406 2.11zm9.351 1.18c1.164 0 2.164-.554 2.696-1.492h.125V24h1.28V12.234h-1.343v4.672h-.117c-.477-.922-1.469-1.476-2.64-1.476-2.141 0-3.54 1.718-3.54 4.36 0 2.648 1.383 4.358 3.54 4.358zm.313-1.21c-1.54 0-2.461-1.18-2.461-3.149 0-1.96.93-3.148 2.46-3.148 1.524 0 2.477 1.218 2.477 3.148 0 1.945-.945 3.148-2.476 3.148zM453.857 11a.571.571 0 00-.562.571v10.052l-3.593-3.594a.571.571 0 00-.807.808l4.568 4.57.006.005.001.001.018.017.024.02v.002l.016.01.001.002.027.019.003.001a.269.269 0 00.02.013l.002.001.024.013.003.002a.165.165 0 00.02.01h.004l.023.011.003.002.026.009h.004l.02.008h.004l.025.007h.004a.228.228 0 00.023.006h.004a.356.356 0 00.024.004h.003a.314.314 0 00.027.003h.032l.013.001h.015a.556.556 0 00.05-.004h-.002.007-.004a.527.527 0 00.04-.006h-.004l.031-.006h-.004a.452.452 0 00.025-.006l-.004.001.038-.011h-.004l.025-.008-.004.001a.332.332 0 00.034-.014l-.004.001a.813.813 0 00.047-.023l-.003.002.003-.003-.002.002a.473.473 0 00.035-.022l-.002.002.024-.017-.002.001a.656.656 0 00.038-.03l.003-.003.026-.023 4.567-4.57a.57.57 0 00-.398-.98h-.017a.57.57 0 00-.392.172l-3.592 3.595V11.58v-.008a.57.57 0 00-.571-.571h-.009V11zm-7.412 14.858h-.008a.57.57 0 100 1.142H461.295a.57.57 0 100-1.142h-14.85z"/>
    <path fill="#0275D8" fill-rule="nonzero" d="M70.17 24c3.352 0 5.32-2.086 5.32-5.64 0-3.547-1.976-5.633-5.32-5.633h-3.867V24h3.867zm-.093-1.266h-2.368v-8.742h2.368c2.5 0 3.976 1.625 3.976 4.383 0 2.75-1.46 4.36-3.976 4.36zm11.14 1.414c2.399 0 3.883-1.656 3.883-4.359 0-2.71-1.484-4.36-3.883-4.36-2.398 0-3.883 1.65-3.883 4.36 0 2.703 1.485 4.36 3.883 4.36zm0-1.21c-1.593 0-2.492-1.157-2.492-3.149 0-2 .899-3.148 2.492-3.148 1.594 0 2.492 1.148 2.492 3.148 0 1.992-.898 3.148-2.492 3.148zM89.881 24l1.875-6.516h.125L93.764 24h1.367l2.36-8.422h-1.352l-1.656 6.735h-.125l-1.883-6.735h-1.289l-1.883 6.735h-.125l-1.656-6.735h-1.36L88.523 24h1.36zm10.75 0v-4.984c0-1.477.868-2.375 2.211-2.375 1.344 0 1.985.718 1.985 2.234V24h1.343v-5.453c0-2-1.054-3.117-2.945-3.117-1.289 0-2.11.547-2.531 1.476h-.125v-1.328h-1.281V24h1.343zm9.414 0V12.234h-1.343V24h1.343zm6.07.148c2.4 0 3.884-1.656 3.884-4.359 0-2.71-1.485-4.36-3.883-4.36-2.399 0-3.883 1.65-3.883 4.36 0 2.703 1.484 4.36 3.883 4.36zm0-1.21c-1.593 0-2.491-1.157-2.491-3.149 0-2 .898-3.148 2.492-3.148 1.593 0 2.492 1.148 2.492 3.148 0 1.992-.899 3.148-2.492 3.148zm8.337 1.21c1.125 0 2.047-.492 2.593-1.39h.125V24h1.282v-5.766c0-1.75-1.149-2.804-3.203-2.804-1.797 0-3.125.89-3.305 2.242h1.36c.187-.664.89-1.047 1.898-1.047 1.257 0 1.906.57 1.906 1.61V19l-2.43.148c-1.96.118-3.07.985-3.07 2.493 0 1.539 1.21 2.507 2.844 2.507zm.25-1.18c-.977 0-1.703-.5-1.703-1.359 0-.843.562-1.289 1.843-1.375l2.266-.148v.773c0 1.203-1.024 2.11-2.406 2.11zm9.351 1.18c1.164 0 2.164-.554 2.696-1.492h.125V24h1.28V12.234h-1.343v4.672h-.117c-.477-.922-1.469-1.476-2.64-1.476-2.141 0-3.54 1.718-3.54 4.36 0 2.648 1.383 4.358 3.54 4.358zm.313-1.21c-1.54 0-2.461-1.18-2.461-3.149 0-1.96.93-3.148 2.46-3.148 1.524 0 2.477 1.218 2.477 3.148 0 1.945-.945 3.148-2.476 3.148zM158.857 11a.571.571 0 00-.562.571v10.052l-3.593-3.594a.571.571 0 00-.807.808l4.568 4.57.006.005.001.001.018.017.024.02v.002l.016.01.001.002.027.019.003.001a.269.269 0 00.02.013l.002.001.024.013.003.002a.165.165 0 00.02.01h.004l.023.011.003.002.026.009h.004l.02.008h.004l.025.007h.004a.228.228 0 00.023.006h.004a.356.356 0 00.024.004h.003a.314.314 0 00.027.003h.032l.013.001h.015a.556.556 0 00.05-.004h-.002.007-.004a.527.527 0 00.04-.006h-.004l.031-.006h-.004a.452.452 0 00.025-.006l-.004.001.038-.011h-.004l.025-.008-.004.001a.332.332 0 00.034-.014l-.004.001a.813.813 0 00.047-.023l-.003.002.003-.003-.002.002a.473.473 0 00.035-.022l-.002.002.024-.017-.002.001a.656.656 0 00.038-.03l.003-.003.026-.023 4.567-4.57a.57.57 0 00-.398-.98h-.017a.57.57 0 00-.392.172l-3.592 3.595V11.58v-.008a.57.57 0 00-.571-.571h-.009V11zM151.445 25.858h-.008a.57.57 0 100 1.142H166.295a.57.57 0 100-1.142h-14.85z"/>
    <path fill="#D73038" fill-rule="nonzero" d="M190.077 96.038c.628 0 1.149-.527 1.149-1.174 0-.641-.52-1.168-1.15-1.168-.628 0-1.148.527-1.148 1.168 0 .647.52 1.174 1.149 1.174zm8.467.076c1.594 0 2.635-1.149 2.635-2.92v-1.282c0-1.765-1.041-2.913-2.635-2.913-.996 0-1.726.425-2.03 1.18h-.115v-3.77H195.3V96h1.06v-1.054h.12c.356.762 1.08 1.168 2.063 1.168zm-.317-.984c-1.13 0-1.853-.812-1.853-2.088v-.99c0-1.27.723-2.082 1.853-2.082 1.143 0 1.866.812 1.866 2.082v.99c0 1.27-.723 2.088-1.866 2.088zm7.414.997c1.047 0 1.835-.482 2.203-1.34h.089V96h1.034v-6.887h-1.079v4.056c0 1.174-.762 1.968-1.898 1.968-1.073 0-1.58-.584-1.58-1.828v-4.196h-1.08v4.469c0 1.65.813 2.545 2.311 2.545zm9.87-.095c.33 0 1.169-.032 1.34-.064v-.914c-.184.02-.876.038-1.263.038-.971 0-1.498-.406-1.498-1.155v-3.885h2.78v-.92h-2.793v-1.866h-1.066v1.866h-1.835v.92h1.835v3.898c0 1.434.793 2.082 2.5 2.082zm8.037 0c.33 0 1.168-.032 1.34-.064v-.914c-.185.02-.877.038-1.264.038-.971 0-1.498-.406-1.498-1.155v-3.885h2.78v-.92h-2.793v-1.866h-1.066v1.866h-1.835v.92h1.835v3.898c0 1.434.793 2.082 2.5 2.082zm6.71.095c1.821 0 2.983-1.187 2.983-3.047v-1.04c0-1.86-1.162-3.048-2.984-3.048-1.821 0-2.983 1.187-2.983 3.047v1.041c0 1.86 1.162 3.047 2.983 3.047zm0-.959c-1.181 0-1.918-.831-1.918-2.19v-.844c0-1.352.737-2.19 1.917-2.19 1.181 0 1.917.838 1.917 2.19v.845c0 1.358-.736 2.19-1.917 2.19zm6.296.832v-4.056c0-1.174.762-1.968 1.898-1.968 1.073 0 1.58.584 1.58 1.828V96h1.08v-4.469c0-1.65-.813-2.545-2.31-2.545-1.048 0-1.835.482-2.203 1.34h-.09v-1.213h-1.034V96h1.08zm13.07 1.98v-.933h-6.589v.933h6.589zm4.754-1.853c1.632 0 2.692-.825 2.692-2.095 0-.996-.61-1.58-1.949-1.885l-.971-.222c-.863-.19-1.219-.489-1.219-1.016 0-.628.565-1.034 1.441-1.034.806 0 1.384.368 1.51.97h1.042c-.127-1.148-1.098-1.866-2.533-1.866-1.517 0-2.533.8-2.533 1.994 0 .977.616 1.606 1.86 1.891l1.022.235c.876.197 1.213.489 1.213 1.035 0 .66-.597 1.085-1.536 1.085-.89 0-1.499-.368-1.657-1.003h-1.098c.12 1.181 1.155 1.911 2.716 1.911zm8.183 0c1.447 0 2.539-.768 2.748-1.904h-1.047c-.19.603-.832.97-1.701.97-1.175 0-1.924-.812-1.924-2.075v-.28h4.691v-.672c0-1.993-1.054-3.18-2.844-3.18-1.752 0-2.913 1.193-2.913 3.009v1.034c0 1.962 1.098 3.098 2.99 3.098zm1.7-4.107h-3.624c0-1.32.692-2.107 1.841-2.107 1.11 0 1.784.793 1.784 2.107zm6.304 4.107c1.523 0 2.57-.857 2.742-2.26h-1.066c-.134.787-.806 1.289-1.695 1.289-1.2 0-1.866-.813-1.866-2.292v-.622c0-1.479.666-2.298 1.866-2.298.889 0 1.561.508 1.695 1.314h1.066c-.178-1.415-1.219-2.279-2.742-2.279-1.873 0-2.964 1.15-2.964 3.124v.9c0 1.975 1.091 3.124 2.964 3.124zm7.91 0c1.82 0 2.983-1.187 2.983-3.047v-1.04c0-1.86-1.162-3.048-2.984-3.048s-2.983 1.187-2.983 3.047v1.041c0 1.86 1.161 3.047 2.983 3.047zm0-.959c-1.182 0-1.918-.831-1.918-2.19v-.844c0-1.352.736-2.19 1.917-2.19 1.18 0 1.917.838 1.917 2.19v.845c0 1.358-.736 2.19-1.917 2.19zm6.296.832v-4.056c0-1.174.762-1.968 1.898-1.968 1.073 0 1.58.584 1.58 1.828V96h1.08v-4.469c0-1.65-.813-2.545-2.31-2.545-1.048 0-1.835.482-2.204 1.34h-.088v-1.213h-1.035V96h1.079zm9.344.114c.984 0 1.707-.406 2.063-1.168h.12V96h1.06v-9.591h-1.098v3.77h-.114c-.298-.755-1.035-1.18-2.031-1.18-1.594 0-2.635 1.148-2.635 2.913v1.282c0 1.771 1.041 2.92 2.635 2.92zm.317-.984c-1.136 0-1.866-.818-1.866-2.088v-.99c0-1.27.73-2.082 1.866-2.082 1.13 0 1.86.812 1.86 2.082v.99c0 1.276-.73 2.088-1.86 2.088zm7.452.99c1.003 0 1.752-.412 2.082-1.148h.108v1.034h1.029V91.29c0-1.435-.927-2.26-2.546-2.26-1.41 0-2.475.756-2.602 1.86h1.06c.177-.59.736-.927 1.53-.927.958 0 1.485.476 1.485 1.34v.622l-1.892.095c-1.568.083-2.444.806-2.444 2.025 0 1.25.876 2.076 2.19 2.076zm.311-.945c-.87 0-1.409-.445-1.409-1.168 0-.717.508-1.13 1.473-1.174l1.77-.083v.813c0 .92-.793 1.612-1.834 1.612zM312.48 96v-.863h-2.133v-2.222c0-1.752.901-2.806 2.425-2.806.374 0 .818.077 1.136.19v-1.212c-.229-.095-.603-.152-.997-.152-1.327 0-2.183.66-2.437 1.936h-.14v-1.758h-2.57v.863h1.529v5.16h-1.39V96h4.577zm4.246 2.45c1.276 0 1.854-.501 2.457-2.196l2.596-7.141h-1.15l-1.922 5.763h-.083l-1.93-5.763h-1.174l2.533 6.931-.12.375c-.286.8-.642 1.092-1.29 1.092-.101 0-.298-.007-.38-.026v.946c.095.013.304.02.463.02zM1.149 96.038c.628 0 1.149-.527 1.149-1.174 0-.641-.52-1.168-1.15-1.168-.627 0-1.148.527-1.148 1.168 0 .647.52 1.174 1.149 1.174zm8.468.076c1.593 0 2.634-1.149 2.634-2.92v-1.282c0-1.765-1.041-2.913-2.634-2.913-.997 0-1.727.425-2.032 1.18h-.114v-3.77H6.373V96h1.06v-1.054h.12c.356.762 1.08 1.168 2.064 1.168zm-.318-.984c-1.13 0-1.853-.812-1.853-2.088v-.99c0-1.27.723-2.082 1.853-2.082 1.143 0 1.867.812 1.867 2.082v.99c0 1.27-.724 2.088-1.867 2.088zm7.414.997c1.048 0 1.835-.482 2.203-1.34h.089V96h1.035v-6.887h-1.08v4.056c0 1.174-.761 1.968-1.898 1.968-1.072 0-1.58-.584-1.58-1.828v-4.196h-1.08v4.469c0 1.65.813 2.545 2.311 2.545zm9.871-.095c.33 0 1.168-.032 1.34-.064v-.914c-.185.02-.877.038-1.264.038-.971 0-1.498-.406-1.498-1.155v-3.885h2.78v-.92H25.15v-1.866h-1.066v1.866h-1.834v.92h1.834v3.898c0 1.434.793 2.082 2.501 2.082zm8.036 0c.33 0 1.168-.032 1.34-.064v-.914c-.185.02-.877.038-1.264.038-.97 0-1.498-.406-1.498-1.155v-3.885h2.78v-.92h-2.792v-1.866h-1.067v1.866h-1.834v.92h1.834v3.898c0 1.434.794 2.082 2.501 2.082zm6.71.095c1.821 0 2.983-1.187 2.983-3.047v-1.04c0-1.86-1.162-3.048-2.983-3.048-1.822 0-2.984 1.187-2.984 3.047v1.041c0 1.86 1.162 3.047 2.984 3.047zm0-.959c-1.181 0-1.917-.831-1.917-2.19v-.844c0-1.352.736-2.19 1.917-2.19 1.18 0 1.917.838 1.917 2.19v.845c0 1.358-.737 2.19-1.917 2.19zm6.296.832v-4.056c0-1.174.762-1.968 1.898-1.968 1.073 0 1.581.584 1.581 1.828V96h1.08v-4.469c0-1.65-.813-2.545-2.311-2.545-1.048 0-1.835.482-2.203 1.34h-.089v-1.213h-1.035V96h1.08zm13.07 1.98v-.933h-6.589v.933h6.59zm7.75-1.98v-.895h-2.272v-8.696H62.76v.895h2.336v7.801H62.74V96h5.707zm4.33.12c1.003 0 1.752-.412 2.082-1.148h.108v1.034h1.028V91.29c0-1.435-.927-2.26-2.545-2.26-1.41 0-2.476.756-2.603 1.86h1.06c.178-.59.737-.927 1.53-.927.959 0 1.485.476 1.485 1.34v.622l-1.891.095c-1.568.083-2.444.806-2.444 2.025 0 1.25.876 2.076 2.19 2.076zm.31-.945c-.869 0-1.408-.445-1.408-1.168 0-.717.508-1.13 1.472-1.174l1.771-.083v.813c0 .92-.793 1.612-1.834 1.612zm8.856.94c1.593 0 2.634-1.15 2.634-2.92v-1.283c0-1.765-1.04-2.913-2.634-2.913-.997 0-1.727.425-2.031 1.18h-.115v-3.77h-1.098V96h1.06v-1.054h.12c.356.762 1.08 1.168 2.064 1.168zm-.317-.985c-1.13 0-1.854-.812-1.854-2.088v-.99c0-1.27.724-2.082 1.854-2.082 1.142 0 1.866.812 1.866 2.082v.99c0 1.27-.724 2.088-1.866 2.088zm8.08.997c1.447 0 2.54-.768 2.749-1.904h-1.048c-.19.603-.831.97-1.7.97-1.175 0-1.924-.812-1.924-2.075v-.28h4.69v-.672c0-1.993-1.053-3.18-2.843-3.18-1.752 0-2.914 1.193-2.914 3.009v1.034c0 1.962 1.098 3.098 2.99 3.098zm1.701-4.107h-3.624c0-1.32.692-2.107 1.84-2.107 1.111 0 1.784.793 1.784 2.107zm9.185 3.98v-.895H98.32v-8.696h-3.415v.895h2.336v7.801h-2.355V96h5.706zM75.167 124.038c.628 0 1.149-.527 1.149-1.174 0-.641-.52-1.168-1.149-1.168-.628 0-1.149.527-1.149 1.168 0 .647.52 1.174 1.149 1.174zm8.468.076c1.593 0 2.634-1.149 2.634-2.92v-1.282c0-1.765-1.041-2.913-2.634-2.913-.997 0-1.727.425-2.031 1.18h-.115v-3.77h-1.098V124h1.06v-1.054h.12c.356.762 1.08 1.168 2.064 1.168zm-.318-.984c-1.13 0-1.853-.812-1.853-2.088v-.99c0-1.27.724-2.082 1.853-2.082 1.143 0 1.867.812 1.867 2.082v.99c0 1.27-.724 2.088-1.867 2.088zm7.414.997c1.048 0 1.835-.482 2.203-1.34h.089V124h1.035v-6.887h-1.08v4.056c0 1.174-.761 1.968-1.897 1.968-1.073 0-1.581-.584-1.581-1.828v-4.196h-1.08v4.469c0 1.65.813 2.545 2.311 2.545zm9.871-.095c.33 0 1.168-.032 1.34-.064v-.914c-.185.02-.877.038-1.264.038-.971 0-1.498-.406-1.498-1.155v-3.885h2.78v-.92h-2.793v-1.866h-1.066v1.866h-1.834v.92H98.1v3.898c0 1.434.794 2.082 2.501 2.082zm8.036 0c.33 0 1.168-.032 1.34-.064v-.914c-.185.02-.876.038-1.264.038-.97 0-1.498-.406-1.498-1.155v-3.885h2.78v-.92h-2.792v-1.866h-1.067v1.866h-1.834v.92h1.834v3.898c0 1.434.794 2.082 2.501 2.082zm6.71.095c1.821 0 2.983-1.187 2.983-3.047v-1.04c0-1.86-1.162-3.048-2.983-3.048-1.822 0-2.984 1.187-2.984 3.047v1.041c0 1.86 1.162 3.047 2.984 3.047zm0-.959c-1.181 0-1.917-.831-1.917-2.19v-.844c0-1.352.736-2.19 1.917-2.19 1.18 0 1.917.838 1.917 2.19v.845c0 1.358-.737 2.19-1.917 2.19zm6.297.832v-4.056c0-1.174.761-1.968 1.897-1.968 1.073 0 1.581.584 1.581 1.828V124h1.08v-4.469c0-1.65-.813-2.545-2.311-2.545-1.048 0-1.835.482-2.203 1.34h-.089v-1.213h-1.035V124h1.08zm13.07 1.98v-.933h-6.59v.933h6.59zm4.862-10.556c.507 0 .895-.38.895-.888a.872.872 0 00-.895-.883.872.872 0 00-.895.883c0 .507.387.888.895.888zm2.888 8.576v-.895h-2.279v-5.992h-3.409v.895h2.343v5.097h-2.362V124h5.707zm5.154.127c1.524 0 2.57-.857 2.742-2.26h-1.066c-.133.787-.806 1.289-1.695 1.289-1.2 0-1.866-.813-1.866-2.292v-.622c0-1.479.666-2.298 1.866-2.298.889 0 1.562.508 1.695 1.314h1.066c-.177-1.415-1.218-2.279-2.742-2.279-1.872 0-2.964 1.15-2.964 3.124v.9c0 1.975 1.092 3.124 2.964 3.124zm7.91 0c1.821 0 2.983-1.187 2.983-3.047v-1.04c0-1.86-1.162-3.048-2.984-3.048-1.821 0-2.983 1.187-2.983 3.047v1.041c0 1.86 1.162 3.047 2.983 3.047zm0-.959c-1.181 0-1.918-.831-1.918-2.19v-.844c0-1.352.737-2.19 1.917-2.19 1.181 0 1.917.838 1.917 2.19v.845c0 1.358-.736 2.19-1.917 2.19zm6.296.832v-4.056c0-1.174.762-1.968 1.898-1.968 1.073 0 1.58.584 1.58 1.828V124h1.08v-4.469c0-1.65-.813-2.545-2.31-2.545-1.048 0-1.835.482-2.203 1.34h-.09v-1.213h-1.034V124h1.08zM353.113 96.038c.628 0 1.149-.527 1.149-1.174 0-.641-.52-1.168-1.15-1.168-.628 0-1.148.527-1.148 1.168 0 .647.52 1.174 1.149 1.174zm8.468.076c1.593 0 2.634-1.149 2.634-2.92v-1.282c0-1.765-1.041-2.913-2.634-2.913-.997 0-1.727.425-2.032 1.18h-.114v-3.77h-1.098V96h1.06v-1.054h.12c.356.762 1.08 1.168 2.064 1.168zm-.318-.984c-1.13 0-1.853-.812-1.853-2.088v-.99c0-1.27.723-2.082 1.853-2.082 1.143 0 1.866.812 1.866 2.082v.99c0 1.27-.723 2.088-1.866 2.088zm7.414.997c1.048 0 1.835-.482 2.203-1.34h.089V96h1.034v-6.887h-1.079v4.056c0 1.174-.761 1.968-1.898 1.968-1.072 0-1.58-.584-1.58-1.828v-4.196h-1.08v4.469c0 1.65.813 2.545 2.311 2.545zm9.87-.095c.33 0 1.169-.032 1.34-.064v-.914c-.184.02-.876.038-1.263.038-.971 0-1.498-.406-1.498-1.155v-3.885h2.78v-.92h-2.793v-1.866h-1.066v1.866h-1.835v.92h1.835v3.898c0 1.434.793 2.082 2.5 2.082zm8.037 0c.33 0 1.168-.032 1.34-.064v-.914c-.185.02-.877.038-1.264.038-.971 0-1.498-.406-1.498-1.155v-3.885h2.78v-.92h-2.793v-1.866h-1.066v1.866h-1.834v.92h1.834v3.898c0 1.434.793 2.082 2.501 2.082zm6.71.095c1.821 0 2.983-1.187 2.983-3.047v-1.04c0-1.86-1.162-3.048-2.984-3.048-1.821 0-2.983 1.187-2.983 3.047v1.041c0 1.86 1.162 3.047 2.983 3.047zm0-.959c-1.181 0-1.918-.831-1.918-2.19v-.844c0-1.352.737-2.19 1.917-2.19 1.181 0 1.917.838 1.917 2.19v.845c0 1.358-.736 2.19-1.917 2.19zm6.296.832v-4.056c0-1.174.762-1.968 1.898-1.968 1.073 0 1.58.584 1.58 1.828V96h1.08v-4.469c0-1.65-.813-2.545-2.31-2.545-1.048 0-1.835.482-2.203 1.34h-.09v-1.213h-1.034V96h1.08zm13.07 1.98v-.933h-6.589v.933h6.59zm3.028.343v-3.39h.12c.299.756 1.029 1.181 2.025 1.181 1.594 0 2.635-1.149 2.635-2.913v-1.283c0-1.77-1.041-2.92-2.635-2.92-.983 0-1.7.407-2.062 1.169h-.115v-1.054h-1.066v9.21h1.098zm1.834-3.174c-1.136 0-1.86-.812-1.86-2.088v-.99c0-1.27.724-2.082 1.86-2.082 1.137 0 1.86.812 1.86 2.082v.99c0 1.27-.723 2.088-1.86 2.088zm9.776.851v-.863h-2.133v-2.222c0-1.752.901-2.806 2.425-2.806.374 0 .819.077 1.136.19v-1.212c-.228-.095-.603-.152-.997-.152-1.326 0-2.183.66-2.437 1.936h-.14v-1.758h-2.57v.863h1.53v5.16h-1.39V96h4.576zm6.297-8.576c.508 0 .895-.38.895-.888a.872.872 0 00-.895-.883.872.872 0 00-.895.883c0 .507.387.888.895.888zM436.483 96v-.895h-2.279v-5.992h-3.409v.895h2.343v5.097h-2.362V96h5.707zm2.679 0v-4.646c0-.857.38-1.384.99-1.384.584 0 .889.438.889 1.27V96h.964v-4.646c0-.857.369-1.384.972-1.384.577 0 .882.438.882 1.276V96h.971v-5.072c0-1.276-.501-1.942-1.46-1.942-.692 0-1.244.419-1.422 1.079h-.114c-.146-.68-.603-1.08-1.25-1.08-.648 0-1.143.407-1.314 1.099h-.115v-.971h-.965V96h.972zm9.686.12c1.003 0 1.752-.412 2.082-1.148h.108v1.034h1.028V91.29c0-1.435-.926-2.26-2.545-2.26-1.41 0-2.476.756-2.603 1.86h1.06c.178-.59.737-.927 1.53-.927.959 0 1.486.476 1.486 1.34v.622l-1.892.095c-1.568.083-2.444.806-2.444 2.025 0 1.25.876 2.076 2.19 2.076zm.311-.945c-.87 0-1.409-.445-1.409-1.168 0-.717.508-1.13 1.473-1.174l1.77-.083v.813c0 .92-.793 1.612-1.834 1.612zm10.283.825v-.863h-2.132v-2.222c0-1.752.9-2.806 2.424-2.806.375 0 .82.077 1.137.19v-1.212c-.229-.095-.603-.152-.997-.152-1.327 0-2.184.66-2.437 1.936h-.14v-1.758h-2.57v.863h1.529v5.16h-1.39V96h4.576zm4.247 2.45c1.276 0 1.853-.501 2.457-2.196l2.596-7.141h-1.15l-1.923 5.763h-.082l-1.93-5.763h-1.174l2.533 6.931-.121.375c-.286.8-.641 1.092-1.289 1.092-.101 0-.298-.007-.38-.026v.946c.095.013.304.02.463.02z"/>
    <path fill="#9F9F9F" fill-rule="nonzero" d="M249.612 43.77l1-.006.257 39.233-1 .006zM408.677 43h1v41.376h-1zM91.866 43v39h-1V43zM156.866 43v69h-1V43z"/>
  </g>
</svg>
