<svg width="914" height="164" xmlns="http://www.w3.org/2000/svg"><g fill="none" fill-rule="evenodd"><g fill-rule="nonzero"><path d="M140.996 35A3.995 3.995 0 01145 38.995v30.01A3.992 3.992 0 01140.996 73H14.004A3.995 3.995 0 0110 69.005v-30.01A3.992 3.992 0 0114.004 35h126.992zm0 1H14.004a2.992 2.992 0 00-2.999 2.818l-.005.177v30.01a2.994 2.994 0 002.827 2.99l.177.005h126.992a2.992 2.992 0 002.999-2.818l.005-.177v-30.01a2.994 2.994 0 00-2.827-2.99l-.177-.005z" fill="#0275D8"/><path d="M31.305 59c3.351 0 5.32-2.086 5.32-5.64 0-3.547-1.977-5.633-5.32-5.633h-3.867V59h3.867zm-.094-1.266h-2.367v-8.742h2.367c2.5 0 3.977 1.625 3.977 4.383 0 2.75-1.461 4.36-3.977 4.36zm11.14 1.414c2.399 0 3.883-1.656 3.883-4.359 0-2.71-1.484-4.36-3.882-4.36-2.399 0-3.883 1.65-3.883 4.36 0 2.703 1.484 4.36 3.883 4.36zm0-1.21c-1.593 0-2.492-1.157-2.492-3.149 0-2 .899-3.148 2.493-3.148 1.593 0 2.492 1.148 2.492 3.148 0 1.992-.899 3.148-2.492 3.148zM51.017 59l1.875-6.516h.125L54.898 59h1.368l2.359-8.422h-1.352l-1.656 6.734h-.125l-1.883-6.734H52.32l-1.883 6.734h-.124l-1.657-6.734h-1.36L49.657 59h1.36zm10.75 0v-4.984c0-1.477.867-2.375 2.21-2.375 1.344 0 1.985.718 1.985 2.234V59h1.344v-5.453c0-2-1.055-3.117-2.946-3.117-1.289 0-2.109.547-2.53 1.476h-.126v-1.328h-1.281V59h1.344zm9.414 0V47.234h-1.344V59h1.344zm6.07.148c2.398 0 3.883-1.656 3.883-4.359 0-2.71-1.485-4.36-3.883-4.36-2.398 0-3.883 1.65-3.883 4.36 0 2.703 1.485 4.36 3.883 4.36zm0-1.21c-1.594 0-2.492-1.157-2.492-3.149 0-2 .898-3.148 2.492-3.148 1.594 0 2.492 1.148 2.492 3.148 0 1.992-.898 3.148-2.492 3.148zm8.336 1.21c1.125 0 2.047-.492 2.594-1.39h.125V59h1.28v-5.766c0-1.75-1.147-2.804-3.202-2.804-1.797 0-3.125.89-3.305 2.242h1.36c.187-.664.89-1.047 1.898-1.047 1.258 0 1.906.57 1.906 1.61V54l-2.43.148c-1.96.118-3.07.985-3.07 2.493 0 1.539 1.211 2.507 2.844 2.507zm.25-1.18c-.977 0-1.703-.5-1.703-1.359 0-.843.562-1.289 1.844-1.375l2.265-.148v.773c0 1.203-1.023 2.11-2.406 2.11zm9.352 1.18c1.164 0 2.164-.554 2.695-1.492h.125V59h1.281V47.234h-1.344v4.672h-.117c-.476-.922-1.469-1.476-2.64-1.476-2.141 0-3.54 1.718-3.54 4.36 0 2.648 1.383 4.358 3.54 4.358zm.312-1.21c-1.54 0-2.46-1.18-2.46-3.149 0-1.96.929-3.148 2.46-3.148 1.523 0 2.477 1.218 2.477 3.148 0 1.945-.946 3.148-2.477 3.148zM121.992 46a.571.571 0 00-.563.571v10.052l-3.592-3.594a.571.571 0 00-.807.808l4.567 4.57a.09.09 0 00.006.005l.001.001a.563.563 0 00.018.017l.024.02v.002l.016.01.001.002.027.019.003.001a.269.269 0 00.02.013l.003.001.023.013.003.002a.165.165 0 00.02.01h.004l.023.011.004.002.025.009h.004a.388.388 0 00.02.008h.004l.026.007h.003a.228.228 0 00.024.006h.003a.356.356 0 00.025.004h.003a.314.314 0 00.027.003h.031l.014.001h.014a.557.557 0 00.05-.004h-.002.007-.003a.527.527 0 00.039-.006h-.004l.031-.006h-.004a.452.452 0 00.026-.006l-.004.001.038-.011h-.004l.024-.008-.003.001a.332.332 0 00.033-.014l-.003.001a.813.813 0 00.046-.023l-.003.002.004-.003-.002.002a.473.473 0 00.034-.022l-.002.002.024-.017-.001.001a.656.656 0 00.037-.03l.003-.003.027-.023 4.566-4.57a.57.57 0 00-.398-.98h-.017a.57.57 0 00-.392.172l-3.592 3.595V46.58v-.008a.57.57 0 00-.57-.571h-.01V46zm-7.413 14.858h-.008a.57.57 0 100 1.142H129.429a.57.57 0 100-1.142h-14.85z" fill="#0275D8"/><path d="M52.392 131.038c.628 0 1.149-.527 1.149-1.174 0-.641-.521-1.168-1.15-1.168-.628 0-1.148.527-1.148 1.168 0 .647.52 1.174 1.149 1.174zm8.467.076c1.594 0 2.635-1.149 2.635-2.92v-1.282c0-1.765-1.041-2.913-2.635-2.913-.996 0-1.726.425-2.03 1.18h-.115v-3.77h-1.098V131h1.06v-1.054h.12c.356.762 1.08 1.168 2.063 1.168zm-.317-.984c-1.13 0-1.854-.812-1.854-2.088v-.99c0-1.27.724-2.082 1.854-2.082 1.143 0 1.866.812 1.866 2.082v.99c0 1.27-.723 2.088-1.866 2.088zm7.414.997c1.047 0 1.835-.482 2.203-1.34h.089V131h1.034v-6.887h-1.079v4.056c0 1.174-.762 1.968-1.898 1.968-1.073 0-1.58-.584-1.58-1.828v-4.196h-1.08v4.469c0 1.65.813 2.545 2.311 2.545zm9.87-.095c.33 0 1.169-.032 1.34-.064v-.914c-.184.02-.876.038-1.263.038-.971 0-1.498-.406-1.498-1.155v-3.885h2.78v-.92h-2.793v-1.866h-1.066v1.866H73.49v.92h1.835v3.898c0 1.434.793 2.082 2.5 2.082zm8.037 0c.33 0 1.168-.032 1.34-.064v-.914c-.185.02-.877.038-1.264.038-.971 0-1.498-.406-1.498-1.155v-3.885h2.78v-.92h-2.793v-1.866h-1.066v1.866h-1.835v.92h1.835v3.898c0 1.434.793 2.082 2.5 2.082zm6.71.095c1.821 0 2.983-1.187 2.983-3.047v-1.04c0-1.86-1.162-3.048-2.984-3.048s-2.983 1.187-2.983 3.047v1.041c0 1.86 1.161 3.047 2.983 3.047zm0-.959c-1.181 0-1.918-.831-1.918-2.19v-.844c0-1.352.737-2.19 1.917-2.19 1.18 0 1.917.838 1.917 2.19v.845c0 1.358-.736 2.19-1.917 2.19zm6.296.832v-4.056c0-1.174.762-1.968 1.898-1.968 1.073 0 1.58.584 1.58 1.828V131h1.08v-4.469c0-1.65-.813-2.545-2.31-2.545-1.048 0-1.835.482-2.203 1.34h-.09v-1.213H97.79V131h1.08z" fill="#D73038"/><path fill="#9F9F9F" d="M75.872 78.77l1-.006.256 39.233-1 .006z"/></g><g transform="translate(377 38)"><rect fill="#0275D8" width="135" height="38" rx="4"/><path d="M21.305 24c3.351 0 5.32-2.086 5.32-5.64 0-3.547-1.977-5.633-5.32-5.633h-3.867V24h3.867zm-.094-1.266h-2.367v-8.742h2.367c2.5 0 3.977 1.625 3.977 4.383 0 2.75-1.461 4.36-3.977 4.36zm11.14 1.414c2.399 0 3.883-1.656 3.883-4.359 0-2.71-1.484-4.36-3.882-4.36-2.399 0-3.883 1.65-3.883 4.36 0 2.703 1.484 4.36 3.883 4.36zm0-1.21c-1.593 0-2.492-1.157-2.492-3.149 0-2 .899-3.148 2.493-3.148 1.593 0 2.492 1.148 2.492 3.148 0 1.992-.899 3.148-2.492 3.148zM41.017 24l1.875-6.516h.125L44.898 24h1.368l2.359-8.422h-1.352l-1.656 6.735h-.125l-1.883-6.735H42.32l-1.883 6.735h-.124l-1.657-6.735h-1.36L39.657 24h1.36zm10.75 0v-4.984c0-1.477.867-2.375 2.21-2.375 1.344 0 1.985.718 1.985 2.234V24h1.344v-5.453c0-2-1.055-3.117-2.946-3.117-1.289 0-2.109.547-2.53 1.476h-.126v-1.328h-1.281V24h1.344zm9.414 0V12.234h-1.344V24h1.344zm6.07.148c2.398 0 3.883-1.656 3.883-4.359 0-2.71-1.485-4.36-3.883-4.36-2.398 0-3.883 1.65-3.883 4.36 0 2.703 1.485 4.36 3.883 4.36zm0-1.21c-1.594 0-2.492-1.157-2.492-3.149 0-2 .898-3.148 2.492-3.148 1.594 0 2.492 1.148 2.492 3.148 0 1.992-.898 3.148-2.492 3.148zm8.336 1.21c1.125 0 2.047-.492 2.594-1.39h.125V24h1.28v-5.766c0-1.75-1.147-2.804-3.202-2.804-1.797 0-3.125.89-3.305 2.242h1.36c.187-.664.89-1.047 1.898-1.047 1.258 0 1.906.57 1.906 1.61V19l-2.43.148c-1.96.118-3.07.985-3.07 2.493 0 1.539 1.211 2.507 2.844 2.507zm.25-1.18c-.977 0-1.703-.5-1.703-1.359 0-.843.562-1.289 1.844-1.375l2.265-.148v.773c0 1.203-1.023 2.11-2.406 2.11zm9.352 1.18c1.164 0 2.164-.554 2.695-1.492h.125V24h1.281V12.234h-1.344v4.672h-.117c-.476-.922-1.469-1.476-2.64-1.476-2.141 0-3.54 1.718-3.54 4.36 0 2.648 1.383 4.358 3.54 4.358zm.312-1.21c-1.54 0-2.46-1.18-2.46-3.149 0-1.96.929-3.148 2.46-3.148 1.523 0 2.477 1.218 2.477 3.148 0 1.945-.946 3.148-2.477 3.148zM111.992 11a.571.571 0 00-.563.571v10.052l-3.592-3.594a.571.571 0 00-.807.808l4.567 4.57a.09.09 0 00.006.005l.001.001a.563.563 0 00.018.017l.024.02v.002l.016.01.001.002.027.019.003.001a.269.269 0 00.02.013l.003.001.023.013.003.002a.165.165 0 00.02.01h.004l.023.011.004.002.025.009h.004a.388.388 0 00.02.008h.004l.026.007h.003a.228.228 0 00.024.006h.003a.356.356 0 00.025.004h.003a.314.314 0 00.027.003h.031l.014.001h.014a.557.557 0 00.05-.004h-.002.007-.003a.527.527 0 00.039-.006h-.004l.031-.006h-.004a.452.452 0 00.026-.006l-.004.001.038-.011h-.004l.024-.008-.003.001a.332.332 0 00.033-.014l-.003.001a.813.813 0 00.046-.023l-.003.002.004-.003-.002.002a.473.473 0 00.034-.022l-.002.002.024-.017-.001.001a.656.656 0 00.037-.03l.003-.003.027-.023 4.566-4.57a.57.57 0 00-.398-.98h-.017a.57.57 0 00-.392.172l-3.592 3.595V11.58v-.008a.57.57 0 00-.57-.571h-.01V11zm-7.413 14.858h-.008a.57.57 0 100 1.142H119.429a.57.57 0 100-1.142h-14.85z" fill="#F6F8FA" fill-rule="nonzero"/><path d="M11.247 96.038c.628 0 1.149-.527 1.149-1.174 0-.641-.52-1.168-1.149-1.168-.628 0-1.149.527-1.149 1.168 0 .647.52 1.174 1.15 1.174zm8.468.076c1.593 0 2.634-1.149 2.634-2.92v-1.282c0-1.765-1.04-2.913-2.634-2.913-.997 0-1.727.425-2.031 1.18h-.115v-3.77h-1.098V96h1.06v-1.054h.12c.356.762 1.08 1.168 2.064 1.168zm-.318-.984c-1.13 0-1.853-.812-1.853-2.088v-.99c0-1.27.724-2.082 1.853-2.082 1.143 0 1.867.812 1.867 2.082v.99c0 1.27-.724 2.088-1.867 2.088zm7.415.997c1.047 0 1.834-.482 2.202-1.34h.089V96h1.035v-6.887h-1.08v4.056c0 1.174-.761 1.968-1.897 1.968-1.073 0-1.58-.584-1.58-1.828v-4.196H24.5v4.469c0 1.65.812 2.545 2.31 2.545zm9.87-.095c.33 0 1.168-.032 1.34-.064v-.914c-.185.02-.876.038-1.264.038-.97 0-1.498-.406-1.498-1.155v-3.885h2.78v-.92h-2.792v-1.866H34.18v1.866h-1.834v.92h1.834v3.898c0 1.434.794 2.082 2.501 2.082zm8.036 0c.33 0 1.168-.032 1.34-.064v-.914c-.184.02-.876.038-1.264.038-.97 0-1.498-.406-1.498-1.155v-3.885h2.78v-.92h-2.792v-1.866h-1.067v1.866h-1.834v.92h1.834v3.898c0 1.434.794 2.082 2.501 2.082zm6.71.095c1.822 0 2.983-1.187 2.983-3.047v-1.04c0-1.86-1.161-3.048-2.983-3.048s-2.984 1.187-2.984 3.047v1.041c0 1.86 1.162 3.047 2.984 3.047zm0-.959c-1.18 0-1.917-.831-1.917-2.19v-.844c0-1.352.736-2.19 1.917-2.19 1.18 0 1.917.838 1.917 2.19v.845c0 1.358-.737 2.19-1.917 2.19zm6.297.832v-4.056c0-1.174.761-1.968 1.898-1.968 1.072 0 1.58.584 1.58 1.828V96h1.08v-4.469c0-1.65-.813-2.545-2.311-2.545-1.048 0-1.835.482-2.203 1.34h-.089v-1.213h-1.034V96h1.079zm13.07 1.98v-.933h-6.59v.933h6.59zm3.027.343v-3.39h.12c.3.756 1.03 1.181 2.026 1.181 1.593 0 2.634-1.149 2.634-2.913v-1.283c0-1.77-1.041-2.92-2.634-2.92-.984 0-1.701.407-2.063 1.169h-.114v-1.054h-1.067v9.21h1.098zm1.835-3.174c-1.136 0-1.86-.812-1.86-2.088v-.99c0-1.27.724-2.082 1.86-2.082 1.136 0 1.86.812 1.86 2.082v.99c0 1.27-.724 2.088-1.86 2.088zm9.775.851v-.863H83.3v-2.222c0-1.752.902-2.806 2.425-2.806.375 0 .819.077 1.136.19v-1.212c-.228-.095-.603-.152-.996-.152-1.327 0-2.184.66-2.438 1.936h-.14v-1.758h-2.57v.863h1.53v5.16h-1.39V96h4.576zm6.297-8.576c.508 0 .895-.38.895-.888a.872.872 0 00-.895-.883.872.872 0 00-.895.883c0 .507.387.888.895.888zM94.617 96v-.895h-2.279v-5.992H88.93v.895h2.342v5.097h-2.361V96h5.706zm2.679 0v-4.646c0-.857.38-1.384.99-1.384.584 0 .889.438.889 1.27V96h.965v-4.646c0-.857.368-1.384.97-1.384.578 0 .883.438.883 1.276V96h.971v-5.072c0-1.276-.501-1.942-1.46-1.942-.692 0-1.244.419-1.421 1.079h-.115c-.146-.68-.603-1.08-1.25-1.08-.648 0-1.143.407-1.314 1.099h-.114v-.971h-.965V96h.97zm9.686.12c1.003 0 1.752-.412 2.082-1.148h.108v1.034h1.029V91.29c0-1.435-.927-2.26-2.546-2.26-1.409 0-2.475.756-2.602 1.86h1.06c.178-.59.736-.927 1.53-.927.958 0 1.485.476 1.485 1.34v.622l-1.892.095c-1.568.083-2.444.806-2.444 2.025 0 1.25.876 2.076 2.19 2.076zm.311-.945c-.87 0-1.409-.445-1.409-1.168 0-.717.508-1.13 1.473-1.174l1.77-.083v.813c0 .92-.793 1.612-1.834 1.612zm10.284.825v-.863h-2.133v-2.222c0-1.752.901-2.806 2.425-2.806.374 0 .819.077 1.136.19v-1.212c-.229-.095-.603-.152-.997-.152-1.326 0-2.183.66-2.437 1.936h-.14v-1.758h-2.57v.863h1.53v5.16H113V96h4.577zm4.246 2.45c1.276 0 1.854-.501 2.457-2.196l2.596-7.141h-1.149l-1.923 5.763h-.083l-1.93-5.763h-1.174l2.533 6.931-.12.375c-.286.8-.642 1.092-1.29 1.092-.1 0-.298-.007-.38-.026v.946c.095.013.305.02.463.02z" fill="#D73038" fill-rule="nonzero"/><path fill="#9F9F9F" fill-rule="nonzero" d="M66.81 43h1v41.376h-1z"/></g><g fill-rule="nonzero"><path d="M233.17 62c3.352 0 5.32-2.086 5.32-5.64 0-3.547-1.976-5.633-5.32-5.633h-3.867V62h3.867zm-.093-1.266h-2.368v-8.742h2.368c2.5 0 3.976 1.625 3.976 4.383 0 2.75-1.46 4.36-3.976 4.36zm11.14 1.414c2.399 0 3.883-1.656 3.883-4.359 0-2.71-1.484-4.36-3.883-4.36-2.398 0-3.883 1.65-3.883 4.36 0 2.703 1.485 4.36 3.883 4.36zm0-1.21c-1.593 0-2.492-1.157-2.492-3.149 0-2 .899-3.148 2.492-3.148 1.594 0 2.492 1.148 2.492 3.148 0 1.992-.898 3.148-2.492 3.148zM252.881 62l1.875-6.516h.125L256.764 62h1.367l2.36-8.422h-1.352l-1.656 6.734h-.125l-1.883-6.734h-1.289l-1.883 6.734h-.125l-1.656-6.734h-1.36l2.36 8.422h1.36zm10.75 0v-4.984c0-1.477.868-2.375 2.211-2.375 1.344 0 1.985.718 1.985 2.234V62h1.343v-5.453c0-2-1.054-3.117-2.945-3.117-1.289 0-2.11.547-2.531 1.476h-.125v-1.328h-1.281V62h1.343zm9.414 0V50.234h-1.343V62h1.343zm6.07.148c2.4 0 3.884-1.656 3.884-4.359 0-2.71-1.485-4.36-3.883-4.36-2.399 0-3.883 1.65-3.883 4.36 0 2.703 1.484 4.36 3.883 4.36zm0-1.21c-1.593 0-2.491-1.157-2.491-3.149 0-2 .898-3.148 2.492-3.148 1.593 0 2.492 1.148 2.492 3.148 0 1.992-.899 3.148-2.492 3.148zm8.337 1.21c1.125 0 2.047-.492 2.593-1.39h.125V62h1.282v-5.766c0-1.75-1.149-2.804-3.203-2.804-1.797 0-3.125.89-3.305 2.242h1.36c.187-.664.89-1.047 1.898-1.047 1.257 0 1.906.57 1.906 1.61V57l-2.43.148c-1.96.118-3.07.985-3.07 2.493 0 1.539 1.21 2.507 2.844 2.507zm.25-1.18c-.977 0-1.703-.5-1.703-1.359 0-.843.562-1.289 1.843-1.375l2.266-.148v.773c0 1.203-1.024 2.11-2.406 2.11zm9.351 1.18c1.164 0 2.164-.554 2.696-1.492h.125V62h1.28V50.234h-1.343v4.672h-.117c-.477-.922-1.469-1.476-2.64-1.476-2.141 0-3.54 1.718-3.54 4.36 0 2.648 1.383 4.358 3.54 4.358zm.313-1.21c-1.54 0-2.461-1.18-2.461-3.149 0-1.96.93-3.148 2.46-3.148 1.524 0 2.477 1.218 2.477 3.148 0 1.945-.945 3.148-2.476 3.148zM321.857 49a.571.571 0 00-.562.571v10.052l-3.593-3.594a.571.571 0 00-.807.808l4.568 4.57.006.005.001.001.018.017.024.02v.002l.016.01.001.002.027.019.003.001a.269.269 0 00.02.013l.002.001.024.013.003.002a.165.165 0 00.02.01h.004l.023.011.003.002.026.009h.004l.02.008h.004l.025.007h.004a.228.228 0 00.023.006h.004a.356.356 0 00.024.004h.003a.314.314 0 00.027.003h.032l.013.001h.015a.556.556 0 00.05-.004h-.002.007-.004a.527.527 0 00.04-.006h-.004l.031-.006h-.004a.452.452 0 00.025-.006l-.004.001.038-.011h-.004l.025-.008-.004.001a.332.332 0 00.034-.014l-.004.001a.813.813 0 00.047-.023l-.003.002.003-.003-.002.002a.473.473 0 00.035-.022l-.002.002.024-.017-.002.001a.656.656 0 00.038-.03l.003-.003.026-.023 4.567-4.57a.57.57 0 00-.415-.98.57.57 0 00-.392.172l-3.592 3.595V49.58v-.008a.57.57 0 00-.571-.571h-.009V49zM314.445 63.858h-.008a.57.57 0 100 1.142H329.295a.57.57 0 100-1.142h-14.85z" fill="#0275D8"/><path d="M197.149 134.038c.628 0 1.149-.527 1.149-1.174 0-.641-.52-1.168-1.15-1.168-.627 0-1.148.527-1.148 1.168 0 .647.52 1.174 1.149 1.174zm8.468.076c1.593 0 2.634-1.149 2.634-2.92v-1.282c0-1.765-1.041-2.913-2.634-2.913-.997 0-1.727.425-2.032 1.18h-.114v-3.77h-1.098V134h1.06v-1.054h.12c.356.762 1.08 1.168 2.064 1.168zm-.318-.984c-1.13 0-1.853-.812-1.853-2.088v-.99c0-1.27.723-2.082 1.853-2.082 1.143 0 1.867.812 1.867 2.082v.99c0 1.27-.724 2.088-1.867 2.088zm7.414.997c1.048 0 1.835-.482 2.203-1.34h.089V134h1.035v-6.887h-1.08v4.056c0 1.174-.761 1.968-1.897 1.968-1.073 0-1.581-.584-1.581-1.828v-4.196h-1.08v4.469c0 1.65.813 2.545 2.311 2.545zm9.871-.095c.33 0 1.168-.032 1.34-.064v-.914c-.185.02-.877.038-1.264.038-.971 0-1.498-.406-1.498-1.155v-3.885h2.78v-.92h-2.793v-1.866h-1.066v1.866h-1.834v.92h1.834v3.898c0 1.434.793 2.082 2.501 2.082zm8.036 0c.33 0 1.168-.032 1.34-.064v-.914c-.185.02-.877.038-1.264.038-.97 0-1.498-.406-1.498-1.155v-3.885h2.78v-.92h-2.792v-1.866h-1.067v1.866h-1.834v.92h1.834v3.898c0 1.434.794 2.082 2.501 2.082zm6.71.095c1.821 0 2.983-1.187 2.983-3.047v-1.04c0-1.86-1.162-3.048-2.983-3.048-1.822 0-2.984 1.187-2.984 3.047v1.041c0 1.86 1.162 3.047 2.984 3.047zm0-.959c-1.181 0-1.917-.831-1.917-2.19v-.844c0-1.352.736-2.19 1.917-2.19 1.18 0 1.917.838 1.917 2.19v.845c0 1.358-.737 2.19-1.917 2.19zm6.296.832v-4.056c0-1.174.762-1.968 1.898-1.968 1.073 0 1.581.584 1.581 1.828V134h1.08v-4.469c0-1.65-.813-2.545-2.311-2.545-1.048 0-1.835.482-2.203 1.34h-.089v-1.213h-1.035V134h1.08zm13.07 1.98v-.933h-6.589v.933h6.59zm7.75-1.98v-.895h-2.272v-8.696h-3.415v.895h2.336v7.801h-2.355V134h5.707zm4.33.12c1.003 0 1.752-.412 2.082-1.148h.108v1.034h1.028v-4.716c0-1.435-.927-2.26-2.545-2.26-1.41 0-2.476.756-2.603 1.86h1.06c.178-.59.737-.927 1.53-.927.959 0 1.485.476 1.485 1.34v.622l-1.891.095c-1.568.083-2.444.806-2.444 2.025 0 1.25.876 2.076 2.19 2.076zm.31-.945c-.869 0-1.408-.445-1.408-1.168 0-.717.508-1.13 1.472-1.174l1.771-.083v.813c0 .92-.793 1.612-1.834 1.612zm8.856.94c1.593 0 2.634-1.15 2.634-2.92v-1.283c0-1.765-1.04-2.913-2.634-2.913-.997 0-1.727.425-2.031 1.18h-.115v-3.77h-1.098V134h1.06v-1.054h.12c.356.762 1.08 1.168 2.064 1.168zm-.317-.985c-1.13 0-1.854-.812-1.854-2.088v-.99c0-1.27.724-2.082 1.854-2.082 1.142 0 1.866.812 1.866 2.082v.99c0 1.27-.724 2.088-1.866 2.088zm8.08.997c1.447 0 2.54-.768 2.749-1.904h-1.048c-.19.603-.831.97-1.7.97-1.175 0-1.924-.812-1.924-2.075v-.28h4.69v-.672c0-1.993-1.053-3.18-2.843-3.18-1.752 0-2.914 1.193-2.914 3.009v1.034c0 1.962 1.098 3.098 2.99 3.098zm1.701-4.107h-3.624c0-1.32.692-2.107 1.84-2.107 1.111 0 1.784.793 1.784 2.107zm9.185 3.98v-.895h-2.272v-8.696h-3.415v.895h2.336v7.801h-2.355V134h5.706zM270.167 162.038c.628 0 1.149-.527 1.149-1.174 0-.641-.52-1.168-1.149-1.168-.628 0-1.149.527-1.149 1.168 0 .647.52 1.174 1.149 1.174zm8.468.076c1.593 0 2.634-1.149 2.634-2.92v-1.282c0-1.765-1.041-2.913-2.634-2.913-.997 0-1.727.425-2.031 1.18h-.115v-3.77h-1.098V162h1.06v-1.054h.12c.356.762 1.08 1.168 2.064 1.168zm-.318-.984c-1.13 0-1.853-.812-1.853-2.088v-.99c0-1.27.723-2.082 1.853-2.082 1.143 0 1.867.812 1.867 2.082v.99c0 1.27-.724 2.088-1.867 2.088zm7.414.997c1.048 0 1.835-.482 2.203-1.34h.089V162h1.035v-6.887h-1.08v4.056c0 1.174-.761 1.968-1.897 1.968-1.073 0-1.581-.584-1.581-1.828v-4.196h-1.08v4.469c0 1.65.813 2.545 2.311 2.545zm9.871-.095c.33 0 1.168-.032 1.34-.064v-.914c-.185.02-.877.038-1.264.038-.971 0-1.498-.406-1.498-1.155v-3.885h2.78v-.92h-2.793v-1.866h-1.066v1.866h-1.834v.92h1.834v3.898c0 1.434.794 2.082 2.501 2.082zm8.036 0c.33 0 1.168-.032 1.34-.064v-.914c-.185.02-.876.038-1.264.038-.97 0-1.498-.406-1.498-1.155v-3.885h2.78v-.92h-2.792v-1.866h-1.067v1.866h-1.834v.92h1.834v3.898c0 1.434.794 2.082 2.501 2.082zm6.71.095c1.821 0 2.983-1.187 2.983-3.047v-1.04c0-1.86-1.162-3.048-2.983-3.048-1.822 0-2.984 1.187-2.984 3.047v1.041c0 1.86 1.162 3.047 2.984 3.047zm0-.959c-1.181 0-1.917-.831-1.917-2.19v-.844c0-1.352.736-2.19 1.917-2.19 1.18 0 1.917.838 1.917 2.19v.845c0 1.358-.737 2.19-1.917 2.19zm6.297.832v-4.056c0-1.174.761-1.968 1.897-1.968 1.073 0 1.581.584 1.581 1.828V162h1.08v-4.469c0-1.65-.813-2.545-2.311-2.545-1.048 0-1.835.482-2.203 1.34h-.089v-1.213h-1.035V162h1.08zm13.07 1.98v-.933h-6.59v.933h6.59zm4.862-10.556c.507 0 .895-.38.895-.888a.872.872 0 00-.895-.883.872.872 0 00-.895.883c0 .507.387.888.895.888zm2.888 8.576v-.895h-2.279v-5.992h-3.409v.895h2.343v5.097h-2.362V162h5.707zm5.154.127c1.524 0 2.57-.857 2.742-2.26h-1.066c-.133.787-.806 1.289-1.695 1.289-1.2 0-1.866-.813-1.866-2.292v-.622c0-1.479.666-2.298 1.866-2.298.889 0 1.562.508 1.695 1.314h1.066c-.177-1.415-1.218-2.279-2.742-2.279-1.872 0-2.964 1.15-2.964 3.124v.9c0 1.975 1.092 3.124 2.964 3.124zm7.91 0c1.821 0 2.983-1.187 2.983-3.047v-1.04c0-1.86-1.162-3.048-2.984-3.048-1.821 0-2.983 1.187-2.983 3.047v1.041c0 1.86 1.162 3.047 2.983 3.047zm0-.959c-1.181 0-1.918-.831-1.918-2.19v-.844c0-1.352.737-2.19 1.917-2.19 1.181 0 1.917.838 1.917 2.19v.845c0 1.358-.736 2.19-1.917 2.19zm6.296.832v-4.056c0-1.174.762-1.968 1.898-1.968 1.073 0 1.58.584 1.58 1.828V162h1.08v-4.469c0-1.65-.813-2.545-2.31-2.545-1.048 0-1.835.482-2.203 1.34h-.09v-1.213h-1.034V162h1.08z" fill="#D73038"/><path fill="#9F9F9F" d="M254.866 81v39h-1V81zM319.866 81v69h-1V81z"/></g><path d="M291.41 24v-8.757h3.178v-1.107H287v1.107h3.179V24h1.23zm6.172 0v-4.361c0-1.244.725-2.078 2.044-2.078 1.114 0 1.702.649 1.702 1.955V24h1.176v-4.771c0-1.73-.984-2.728-2.543-2.728-1.128 0-1.9.478-2.27 1.292h-.109v-4.088h-1.176V24h1.176zm10.022.13c1.613 0 2.761-.78 3.103-2.037h-1.176c-.307.65-.95.998-1.9.998-1.251 0-2.065-.923-2.126-2.38v-.054h5.298v-.45c0-2.291-1.21-3.706-3.2-3.706-2.023 0-3.322 1.504-3.322 3.821 0 2.331 1.279 3.808 3.323 3.808zm1.961-4.423h-4.06c.089-1.306.91-2.167 2.085-2.167 1.169 0 1.948.861 1.975 2.167zm10.699 4.423c1.866 0 3.09-1.51 3.09-3.815 0-2.317-1.217-3.814-3.09-3.814-1.012 0-1.908.499-2.31 1.292h-.11v-4.088h-1.176V24h1.121v-1.176h.11c.464.82 1.34 1.306 2.365 1.306zm-.274-1.06c-1.34 0-2.174-1.052-2.174-2.755 0-1.702.834-2.754 2.174-2.754 1.347 0 2.147 1.032 2.147 2.754 0 1.723-.8 2.755-2.147 2.755zm7.656 1.06c1.128 0 1.915-.465 2.284-1.285h.11V24h1.12v-7.37h-1.176v4.362c0 1.292-.71 2.065-2.01 2.065-1.175 0-1.667-.616-1.667-1.942v-4.484h-1.176v4.771c0 1.744.861 2.728 2.515 2.728zm8.347-.075c.233 0 .458-.028.69-.069v-.99c-.218.02-.334.026-.546.026-.766 0-1.094-.369-1.094-1.237v-4.17h1.64v-.984h-1.64v-1.907h-1.176v1.907h-1.19v.984h1.19v4.47c0 1.41.609 1.97 2.126 1.97zm5.086 0c.233 0 .458-.028.69-.069v-.99c-.218.02-.334.026-.546.026-.766 0-1.094-.369-1.094-1.237v-4.17h1.64v-.984h-1.64v-1.907h-1.176v1.907h-1.19v.984h1.19v4.47c0 1.41.609 1.97 2.126 1.97zm5.496.075c2.099 0 3.398-1.45 3.398-3.815 0-2.372-1.3-3.814-3.398-3.814s-3.397 1.442-3.397 3.814c0 2.366 1.299 3.815 3.397 3.815zm0-1.06c-1.394 0-2.18-1.011-2.18-2.755 0-1.75.786-2.754 2.18-2.754 1.395 0 2.18 1.004 2.18 2.754 0 1.744-.785 2.755-2.18 2.755zm6.42.93v-4.361c0-1.292.758-2.078 1.934-2.078 1.175 0 1.736.628 1.736 1.955V24h1.176v-4.771c0-1.75-.923-2.728-2.577-2.728-1.128 0-1.846.478-2.215 1.292h-.11v-1.162h-1.12V24h1.175zm7.724-6.18l1.237-3.684h-1.333l-.759 3.684h.855zm5.858 6.31c1.675 0 2.953-.91 2.953-2.229 0-1.06-.67-1.66-2.057-1.996l-1.135-.273c-.868-.212-1.278-.527-1.278-1.032 0-.657.683-1.101 1.558-1.101.889 0 1.463.39 1.62.978h1.162c-.157-1.21-1.23-1.976-2.775-1.976-1.565 0-2.748.923-2.748 2.146 0 1.067.629 1.662 2.01 1.997l1.264.307c.786.192 1.17.533 1.17 1.04 0 .676-.712 1.148-1.703 1.148-.943 0-1.531-.397-1.73-1.019h-1.21c.13 1.224 1.259 2.01 2.9 2.01zm11.703 0c1.614 0 2.762-.78 3.104-2.037h-1.176c-.308.65-.95.998-1.9.998-1.251 0-2.065-.923-2.126-2.38v-.054h5.297v-.45c0-2.291-1.21-3.706-3.199-3.706-2.023 0-3.322 1.504-3.322 3.821 0 2.331 1.278 3.808 3.322 3.808zm1.962-4.423h-4.06c.089-1.306.909-2.167 2.085-2.167 1.169 0 1.948.861 1.975 2.167zM384.57 24V13.705h-1.175V24h1.175zm5.237.13c1.613 0 2.761-.78 3.103-2.037h-1.176c-.307.65-.95.998-1.9.998-1.251 0-2.064-.923-2.126-2.38v-.054h5.298v-.45c0-2.291-1.21-3.706-3.2-3.706-2.023 0-3.322 1.504-3.322 3.821 0 2.331 1.279 3.808 3.323 3.808zm1.962-4.423h-4.061c.089-1.306.91-2.167 2.085-2.167 1.169 0 1.948.861 1.976 2.167zM396.026 24v-4.566c0-1.04.745-1.873 1.71-1.873.929 0 1.537.56 1.537 1.435V24h1.176v-4.737c0-.937.684-1.702 1.71-1.702 1.038 0 1.551.533 1.551 1.62V24h1.176v-5.093c0-1.545-.841-2.406-2.345-2.406-1.019 0-1.86.513-2.256 1.292h-.11c-.341-.766-1.038-1.292-2.036-1.292-.985 0-1.723.472-2.058 1.292h-.11v-1.162h-1.12V24h1.175zm13.96.13c1.613 0 2.761-.78 3.103-2.037h-1.176c-.308.65-.95.998-1.9.998-1.251 0-2.065-.923-2.126-2.38v-.054h5.298v-.45c0-2.291-1.21-3.706-3.2-3.706-2.023 0-3.322 1.504-3.322 3.821 0 2.331 1.278 3.808 3.322 3.808zm1.961-4.423h-4.06c.089-1.306.909-2.167 2.085-2.167 1.169 0 1.948.861 1.975 2.167zm4.26 4.293v-4.361c0-1.292.758-2.078 1.934-2.078 1.175 0 1.736.628 1.736 1.955V24h1.176v-4.771c0-1.75-.923-2.728-2.577-2.728-1.128 0-1.846.478-2.215 1.292h-.11v-1.162h-1.12V24h1.175zm9.61.055c.233 0 .458-.028.69-.069v-.99c-.218.02-.334.026-.546.026-.766 0-1.094-.369-1.094-1.237v-4.17h1.64v-.984h-1.64v-1.907h-1.176v1.907h-1.189v.984h1.19v4.47c0 1.41.608 1.97 2.125 1.97zm4.997.075c1.675 0 2.954-.91 2.954-2.229 0-1.06-.67-1.66-2.058-1.996l-1.135-.273c-.868-.212-1.278-.527-1.278-1.032 0-.657.683-1.101 1.558-1.101.89 0 1.463.39 1.62.978h1.163c-.158-1.21-1.23-1.976-2.776-1.976-1.565 0-2.748.923-2.748 2.146 0 1.067.63 1.662 2.01 1.997l1.265.307c.786.192 1.169.533 1.169 1.04 0 .676-.711 1.148-1.703 1.148-.943 0-1.53-.397-1.729-1.019h-1.21c.13 1.224 1.258 2.01 2.898 2.01zm5.77-.062a.891.891 0 00.889-.888.887.887 0 00-.889-.889.891.891 0 00-.889.889c0 .485.404.888.889.888z" fill="#373A3C" fill-rule="nonzero"/><g fill-rule="nonzero"><path d="M896.997 36A4 4 0 01901 40.006v17.988A3.998 3.998 0 01896.997 62H793.003A4 4 0 01789 57.994V40.006A3.998 3.998 0 01793.003 36h103.994zm0 1H793.003a2.997 2.997 0 00-2.998 2.829l-.005.177v17.988a3 3 0 002.826 3l.177.006h103.994a2.997 2.997 0 002.998-2.829l.005-.177V40.006a3 3 0 00-2.826-3l-.177-.006z" fill="#0275D8"/><path d="M801.77 53c2.31 0 3.647-1.429 3.647-3.894 0-2.439-1.348-3.856-3.646-3.856h-2.799V53h2.799zm-.134-1.037h-1.46v-5.677h1.46c1.606 0 2.557 1.047 2.557 2.836 0 1.805-.935 2.841-2.557 2.841zm9.712 1.225c2.24 0 3.615-1.58 3.615-4.066 0-2.492-1.386-4.06-3.615-4.06-2.223 0-3.62 1.563-3.62 4.06 0 2.492 1.364 4.066 3.62 4.066zm0-1.063c-1.493 0-2.39-1.182-2.39-3.003 0-1.837.924-2.997 2.39-2.997 1.466 0 2.385 1.16 2.385 2.997 0 1.82-.913 3.003-2.385 3.003zm8.675.875l1.66-5.795h.075L823.423 53h1.134l2.094-7.75H825.4l-1.418 6.026h-.075l-1.628-6.026h-1.117l-1.617 6.026h-.075l-1.423-6.026h-1.252l2.09 7.75h1.138zm10.25 0v-5.629h.085l3.98 5.629h1.085v-7.75h-1.17v5.64h-.086l-3.98-5.64h-1.085V53h1.17zm12.929 0v-1.047h-3.631V45.25h-1.203V53h4.834zm5.538.188c2.24 0 3.615-1.58 3.615-4.066 0-2.492-1.386-4.06-3.615-4.06-2.223 0-3.62 1.563-3.62 4.06 0 2.492 1.364 4.066 3.62 4.066zm0-1.063c-1.493 0-2.39-1.182-2.39-3.003 0-1.837.924-2.997 2.39-2.997 1.467 0 2.385 1.16 2.385 2.997 0 1.82-.913 3.003-2.385 3.003zm6.516.875l.715-2.095h2.954l.709 2.095h1.278l-2.798-7.75h-1.295L854.021 53h1.235zm3.363-3.062h-2.342l1.128-3.319h.091l1.123 3.32zm7.44 3.062c2.31 0 3.647-1.429 3.647-3.894 0-2.439-1.349-3.856-3.647-3.856h-2.799V53h2.799zm-.135-1.037h-1.46v-5.677h1.46c1.606 0 2.557 1.047 2.557 2.836 0 1.805-.935 2.841-2.557 2.841zM882.993 42a.5.5 0 00-.492.5v8.795l-3.144-3.145a.5.5 0 00-.706.707l3.996 3.999a.08.08 0 00.006.005l.016.015.021.018v.001l.014.01h.001c.007.005.015.012.024.017l.002.002.018.01.002.002.02.011.003.002.018.008.003.001a.619.619 0 00.02.01h.004c.004.003.013.005.022.009h.003l.018.007h.003l.023.006h.003a.2.2 0 00.02.005h.003c.005.001.014.003.022.003h.003c.006.002.014.003.023.003h.001a.46.46 0 00.026 0l.013.001h.012c.015 0 .03-.001.044-.003h-.002.006-.003a.46.46 0 00.034-.006h-.003l.027-.005h-.003a.396.396 0 00.022-.005l-.003.001.033-.01h-.003c.01-.002.015-.005.021-.007l-.003.001a.29.29 0 00.03-.012h-.004a.711.711 0 00.04-.02l-.002.002a.013.013 0 00.003-.002l-.001.001.03-.019-.002.002.02-.015v.001a.574.574 0 00.032-.026l.003-.003.023-.02 3.996-3.998a.5.5 0 00-.364-.858h.001a.499.499 0 00-.343.15l-3.143 3.146v-8.789-.006a.5.5 0 00-.5-.5h-.008V42zm-6.486 13h-.007a.5.5 0 100 1h13a.5.5 0 100-1h-12.993zM765.007 35A4 4 0 01769 39.005v44.99A3.995 3.995 0 01765.007 88H586.993A4 4 0 01583 83.995v-44.99A3.995 3.995 0 01586.993 35h178.014zm0 1H586.993a2.994 2.994 0 00-2.988 2.828l-.005.177v44.99a3 3 0 002.817 3l.176.005h178.014a2.994 2.994 0 002.988-2.828l.005-.177v-44.99a3 3 0 00-2.817-3l-.176-.005z" fill="#0275D8"/><path d="M621.3 69c3.98 0 6.317-2.477 6.317-6.698 0-4.212-2.347-6.69-6.318-6.69h-4.592V69h4.592zm-.112-1.503h-2.811V57.116h2.811c2.969 0 4.722 1.93 4.722 5.204 0 3.266-1.735 5.177-4.722 5.177zm12.98 1.68c2.848 0 4.61-1.968 4.61-5.177 0-3.22-1.762-5.177-4.61-5.177-2.849 0-4.611 1.957-4.611 5.177 0 3.21 1.762 5.176 4.61 5.176zm0-1.439c-1.893 0-2.96-1.373-2.96-3.738 0-2.375 1.067-3.74 2.96-3.74 1.892 0 2.959 1.365 2.959 3.74 0 2.365-1.067 3.738-2.96 3.738zM644.205 69l2.227-7.737h.148L648.817 69h1.623l2.802-10.001h-1.605l-1.967 7.997h-.148L647.286 59h-1.53l-2.236 7.997h-.149L641.404 59h-1.614L642.592 69h1.614zm12.516 0v-5.919c0-1.753 1.03-2.82 2.625-2.82 1.596 0 2.357.853 2.357 2.653V69h1.595v-6.476c0-2.375-1.252-3.701-3.497-3.701-1.531 0-2.505.65-3.006 1.753h-.149V59h-1.521V69h1.596zm10.929 0V55.028h-1.596V69h1.596zm6.958.176c2.849 0 4.611-1.967 4.611-5.176 0-3.22-1.762-5.177-4.61-5.177-2.849 0-4.611 1.957-4.611 5.177 0 3.21 1.762 5.176 4.61 5.176zm0-1.438c-1.892 0-2.96-1.373-2.96-3.738 0-2.375 1.068-3.74 2.96-3.74 1.893 0 2.96 1.365 2.96 3.74 0 2.365-1.067 3.738-2.96 3.738zm9.65 1.438c1.335 0 2.43-.584 3.08-1.651h.148V69h1.521v-6.847c0-2.078-1.363-3.33-3.803-3.33-2.134 0-3.711 1.057-3.925 2.662h1.615c.222-.788 1.057-1.243 2.254-1.243 1.494 0 2.264.677 2.264 1.911v.91l-2.886.176c-2.328.139-3.646 1.169-3.646 2.96 0 1.827 1.438 2.977 3.377 2.977zm.296-1.4c-1.16 0-2.022-.594-2.022-1.615 0-1.002.668-1.53 2.19-1.633l2.69-.176v.919c0 1.428-1.216 2.504-2.858 2.504zm10.855 1.4c1.382 0 2.57-.658 3.2-1.772h.15V69h1.52V55.028h-1.595v5.548h-.14c-.565-1.095-1.743-1.753-3.135-1.753-2.542 0-4.202 2.04-4.202 5.177 0 3.145 1.642 5.176 4.202 5.176zm.371-1.438c-1.827 0-2.922-1.4-2.922-3.738 0-2.33 1.104-3.74 2.922-3.74 1.81 0 2.941 1.448 2.941 3.74 0 2.31-1.122 3.738-2.94 3.738zM727.99 52a.714.714 0 00-.703.714v12.565l-4.491-4.493a.714.714 0 00-1.009 1.01l5.709 5.712a.113.113 0 00.008.007l.001.001.022.02v.002l.03.025.001.001c.005.004.012.01.02.014l.001.001.034.024.003.002.026.016.003.002.03.016.003.002a.206.206 0 00.025.012l.005.001.029.014.004.001c.007.004.02.007.032.012l.005.001.025.009.005.001.032.008h.004a.285.285 0 00.03.007h.004a.444.444 0 00.03.005h.004a.393.393 0 00.034.004h.002l.037.001h.035a.696.696 0 00.063-.004h-.003l.01-.001h-.005a.658.658 0 00.048-.007h-.004l.039-.008-.005.001a.565.565 0 00.032-.008l-.005.001.047-.014-.005.001c.014-.004.022-.008.03-.011l-.004.002a.415.415 0 00.042-.018l-.004.002.058-.03-.004.003.005-.003-.003.001a.59.59 0 00.043-.026l-.002.001.03-.02-.002.001a.82.82 0 00.047-.037l.004-.004.033-.03 5.708-5.71a.714.714 0 00-.52-1.225l.002-.001a.712.712 0 00-.49.215l-4.491 4.493V52.726v-.01a.714.714 0 00-.714-.713h-.01V52zm-9.266 18.572h-.01a.714.714 0 100 1.428H737.286a.714.714 0 100-1.428h-18.562z" fill="#0275D8"/><path d="M622.301 131.038c.629 0 1.15-.527 1.15-1.174 0-.641-.521-1.168-1.15-1.168-.628 0-1.149.527-1.149 1.168 0 .647.52 1.174 1.15 1.174zm8.468.076c1.593 0 2.634-1.149 2.634-2.92v-1.282c0-1.765-1.04-2.913-2.634-2.913-.997 0-1.727.425-2.031 1.18h-.114v-3.77h-1.099V131h1.06v-1.054h.121c.356.762 1.08 1.168 2.063 1.168zm-.317-.984c-1.13 0-1.854-.812-1.854-2.088v-.99c0-1.27.724-2.082 1.854-2.082 1.142 0 1.866.812 1.866 2.082v.99c0 1.27-.724 2.088-1.866 2.088zm7.414.997c1.047 0 1.834-.482 2.202-1.34h.09V131h1.034v-6.887h-1.08v4.056c0 1.174-.76 1.968-1.897 1.968-1.073 0-1.58-.584-1.58-1.828v-4.196h-1.08v4.469c0 1.65.813 2.545 2.31 2.545zm9.87-.095c.33 0 1.168-.032 1.34-.064v-.914c-.184.02-.876.038-1.263.038-.972 0-1.499-.406-1.499-1.155v-3.885h2.78v-.92h-2.792v-1.866h-1.067v1.866h-1.834v.92h1.834v3.898c0 1.434.794 2.082 2.501 2.082zm8.036 0c.33 0 1.168-.032 1.34-.064v-.914c-.184.02-.876.038-1.263.038-.972 0-1.498-.406-1.498-1.155v-3.885h2.78v-.92h-2.793v-1.866h-1.067v1.866h-1.834v.92h1.834v3.898c0 1.434.794 2.082 2.501 2.082zm6.71.095c1.822 0 2.983-1.187 2.983-3.047v-1.04c0-1.86-1.161-3.048-2.983-3.048s-2.983 1.187-2.983 3.047v1.041c0 1.86 1.161 3.047 2.983 3.047zm0-.959c-1.18 0-1.917-.831-1.917-2.19v-.844c0-1.352.736-2.19 1.917-2.19 1.18 0 1.917.838 1.917 2.19v.845c0 1.358-.736 2.19-1.917 2.19zm6.297.832v-4.056c0-1.174.762-1.968 1.898-1.968 1.073 0 1.58.584 1.58 1.828V131h1.08v-4.469c0-1.65-.813-2.545-2.311-2.545-1.047 0-1.835.482-2.203 1.34h-.089v-1.213H667.7V131h1.079zm9.775.038c.629 0 1.15-.527 1.15-1.174 0-.641-.521-1.168-1.15-1.168-.628 0-1.149.527-1.149 1.168 0 .647.52 1.174 1.15 1.174zm11.394-3.599v-1.003h-6.716v1.003h6.716zm5.11 3.675c1.593 0 2.634-1.149 2.634-2.92v-1.282c0-1.765-1.04-2.913-2.634-2.913-.996 0-1.726.425-2.031 1.18h-.114v-3.77h-1.099V131h1.06v-1.054h.121c.356.762 1.08 1.168 2.063 1.168zm-.317-.984c-1.13 0-1.854-.812-1.854-2.088v-.99c0-1.27.724-2.082 1.854-2.082 1.142 0 1.866.812 1.866 2.082v.99c0 1.27-.724 2.088-1.866 2.088zm8.042-7.706c.508 0 .895-.38.895-.888a.872.872 0 00-.895-.883.872.872 0 00-.895.883c0 .507.387.888.895.888zm2.888 8.576v-.895h-2.278v-5.992h-3.41v.895h2.343v5.097h-2.361V131h5.706zm4.825 2.583c1.866 0 2.97-.964 2.97-2.583v-6.887H712.4v1.066h-.12c-.299-.742-1.054-1.18-2.051-1.18-1.612 0-2.666 1.142-2.666 2.913v1.238c0 1.765 1.047 2.913 2.64 2.913 1.004 0 1.765-.438 2.07-1.161h.114v1.073c0 1.104-.666 1.713-1.872 1.713-.92 0-1.613-.374-1.752-.945h-1.067c.14 1.142 1.206 1.84 2.8 1.84zm.031-3.497c-1.142 0-1.879-.825-1.879-2.088v-.946c0-1.263.737-2.082 1.88-2.082 1.136 0 1.866.812 1.866 2.082v.946c0 1.27-.73 2.088-1.867 2.088zM793.265 131.038c.629 0 1.15-.527 1.15-1.174 0-.641-.521-1.168-1.15-1.168-.628 0-1.149.527-1.149 1.168 0 .647.52 1.174 1.15 1.174zm8.468.076c1.593 0 2.634-1.149 2.634-2.92v-1.282c0-1.765-1.04-2.913-2.634-2.913-.997 0-1.727.425-2.031 1.18h-.115v-3.77h-1.098V131h1.06v-1.054h.12c.356.762 1.08 1.168 2.064 1.168zm-.317-.984c-1.13 0-1.854-.812-1.854-2.088v-.99c0-1.27.724-2.082 1.854-2.082 1.142 0 1.866.812 1.866 2.082v.99c0 1.27-.724 2.088-1.866 2.088zm7.414.997c1.047 0 1.834-.482 2.202-1.34h.09V131h1.034v-6.887h-1.08v4.056c0 1.174-.761 1.968-1.897 1.968-1.073 0-1.58-.584-1.58-1.828v-4.196h-1.08v4.469c0 1.65.813 2.545 2.31 2.545zm9.87-.095c.33 0 1.168-.032 1.34-.064v-.914c-.185.02-.876.038-1.264.038-.97 0-1.498-.406-1.498-1.155v-3.885h2.78v-.92h-2.792v-1.866h-1.067v1.866h-1.834v.92h1.834v3.898c0 1.434.794 2.082 2.501 2.082zm8.036 0c.33 0 1.168-.032 1.34-.064v-.914c-.184.02-.876.038-1.264.038-.97 0-1.498-.406-1.498-1.155v-3.885h2.78v-.92h-2.792v-1.866h-1.067v1.866h-1.834v.92h1.834v3.898c0 1.434.794 2.082 2.501 2.082zm6.71.095c1.822 0 2.983-1.187 2.983-3.047v-1.04c0-1.86-1.161-3.048-2.983-3.048s-2.984 1.187-2.984 3.047v1.041c0 1.86 1.162 3.047 2.984 3.047zm0-.959c-1.18 0-1.917-.831-1.917-2.19v-.844c0-1.352.736-2.19 1.917-2.19 1.18 0 1.917.838 1.917 2.19v.845c0 1.358-.737 2.19-1.917 2.19zm6.297.832v-4.056c0-1.174.761-1.968 1.898-1.968 1.072 0 1.58.584 1.58 1.828V131h1.08v-4.469c0-1.65-.813-2.545-2.311-2.545-1.048 0-1.835.482-2.203 1.34h-.089v-1.213h-1.034V131h1.079zm9.775.038c.628 0 1.149-.527 1.149-1.174 0-.641-.52-1.168-1.149-1.168-.628 0-1.149.527-1.149 1.168 0 .647.52 1.174 1.15 1.174zm11.394-3.599v-1.003h-6.716v1.003h6.716zm4.691 3.688c1.631 0 2.691-.825 2.691-2.095 0-.996-.609-1.58-1.948-1.885l-.971-.222c-.864-.19-1.22-.489-1.22-1.016 0-.628.566-1.034 1.442-1.034.806 0 1.383.368 1.51.97h1.041c-.127-1.148-1.098-1.866-2.532-1.866-1.517 0-2.533.8-2.533 1.994 0 .977.616 1.606 1.86 1.891l1.022.235c.876.197 1.212.489 1.212 1.035 0 .66-.596 1.085-1.536 1.085-.889 0-1.498-.368-1.657-1.003h-1.098c.12 1.181 1.156 1.911 2.717 1.911zm5.675-.127v-4.646c0-.857.38-1.384.99-1.384.584 0 .889.438.889 1.27V131h.965v-4.646c0-.857.368-1.384.97-1.384.578 0 .883.438.883 1.276V131h.971v-5.072c0-1.276-.501-1.942-1.46-1.942-.692 0-1.244.419-1.422 1.079h-.114c-.146-.68-.603-1.08-1.25-1.08-.648 0-1.143.407-1.314 1.099h-.115v-.971h-.964V131h.97zm9.686.12c1.003 0 1.752-.412 2.082-1.148h.108v1.034h1.029v-4.716c0-1.435-.927-2.26-2.546-2.26-1.409 0-2.475.756-2.602 1.86h1.06c.177-.59.736-.927 1.53-.927.958 0 1.485.476 1.485 1.34v.622l-1.892.095c-1.568.083-2.444.806-2.444 2.025 0 1.25.876 2.076 2.19 2.076zm.311-.945c-.87 0-1.409-.445-1.409-1.168 0-.717.508-1.13 1.473-1.174l1.77-.083v.813c0 .92-.793 1.612-1.834 1.612zm11.433.825v-.895h-2.273v-8.696h-3.415v.895h2.336v7.801h-2.355V131h5.707zm8.036 0v-.895h-2.273v-8.696h-3.415v.895h2.336v7.801h-2.355V131h5.707z" fill="#D73038"/><path fill="#9F9F9F" d="M673.697 97.375h1v20.997h-1zM845.906 68.502l1-.004.188 50.125-1 .004z"/></g><path d="M24.32 24v-8.757h3.179v-1.107H19.91v1.107h3.178V24h1.23zm6.173 0v-4.361c0-1.244.724-2.078 2.044-2.078 1.114 0 1.702.649 1.702 1.955V24h1.176v-4.771c0-1.73-.985-2.728-2.543-2.728-1.128 0-1.9.478-2.27 1.292h-.11v-4.088h-1.175V24h1.176zm10.021.13c1.613 0 2.762-.78 3.104-2.037h-1.176c-.308.65-.95.998-1.9.998-1.251 0-2.065-.923-2.126-2.38v-.054h5.297v-.45c0-2.291-1.21-3.706-3.199-3.706-2.023 0-3.322 1.504-3.322 3.821 0 2.331 1.278 3.808 3.322 3.808zm1.962-4.423h-4.06c.088-1.306.909-2.167 2.084-2.167 1.17 0 1.949.861 1.976 2.167zm10.698 4.423c1.867 0 3.09-1.51 3.09-3.815 0-2.317-1.217-3.814-3.09-3.814-1.011 0-1.907.499-2.31 1.292h-.11v-4.088H49.58V24h1.12v-1.176h.11c.465.82 1.34 1.306 2.365 1.306zm-.273-1.06c-1.34 0-2.174-1.052-2.174-2.755 0-1.702.834-2.754 2.174-2.754 1.347 0 2.146 1.032 2.146 2.754 0 1.723-.8 2.755-2.146 2.755zm7.656 1.06c1.128 0 1.914-.465 2.283-1.285h.11V24h1.12v-7.37h-1.175v4.362c0 1.292-.71 2.065-2.01 2.065-1.176 0-1.668-.616-1.668-1.942v-4.484h-1.175v4.771c0 1.744.86 2.728 2.515 2.728zm8.347-.075c.232 0 .458-.028.69-.069v-.99c-.219.02-.335.026-.547.026-.765 0-1.093-.369-1.093-1.237v-4.17h1.64v-.984h-1.64v-1.907h-1.176v1.907h-1.19v.984h1.19v4.47c0 1.41.608 1.97 2.126 1.97zm5.086 0c.232 0 .458-.028.69-.069v-.99c-.219.02-.335.026-.547.026-.765 0-1.093-.369-1.093-1.237v-4.17h1.64v-.984h-1.64v-1.907h-1.176v1.907h-1.19v.984h1.19v4.47c0 1.41.608 1.97 2.126 1.97zm5.496.075c2.098 0 3.397-1.45 3.397-3.815 0-2.372-1.299-3.814-3.397-3.814-2.099 0-3.398 1.442-3.398 3.814 0 2.366 1.3 3.815 3.398 3.815zm0-1.06c-1.395 0-2.18-1.011-2.18-2.755 0-1.75.785-2.754 2.18-2.754 1.394 0 2.18 1.004 2.18 2.754 0 1.744-.786 2.755-2.18 2.755zm6.419.93v-4.361c0-1.292.759-2.078 1.934-2.078 1.176 0 1.737.628 1.737 1.955V24h1.175v-4.771c0-1.75-.922-2.728-2.577-2.728-1.128 0-1.845.478-2.215 1.292h-.109v-1.162H84.73V24h1.176zm14.608.13c1.866 0 3.09-1.51 3.09-3.815 0-2.317-1.217-3.814-3.09-3.814-1.012 0-1.907.499-2.31 1.292h-.11v-4.088h-1.176V24h1.122v-1.176h.109c.465.82 1.34 1.306 2.365 1.306zm-.273-1.06c-1.34 0-2.174-1.052-2.174-2.755 0-1.702.834-2.754 2.174-2.754 1.346 0 2.146 1.032 2.146 2.754 0 1.723-.8 2.755-2.146 2.755zm6.453.93V13.705h-1.176V24h1.176zm5.311.13c2.099 0 3.398-1.45 3.398-3.815 0-2.372-1.299-3.814-3.398-3.814-2.098 0-3.397 1.442-3.397 3.814 0 2.366 1.299 3.815 3.397 3.815zm0-1.06c-1.394 0-2.18-1.011-2.18-2.755 0-1.75.786-2.754 2.18-2.754 1.395 0 2.181 1.004 2.181 2.754 0 1.744-.786 2.755-2.18 2.755zm8.258 1.06c1.77 0 2.871-.998 3.083-2.352h-1.19c-.218.834-.908 1.292-1.9 1.292-1.312 0-2.16-1.08-2.16-2.782 0-1.668.834-2.727 2.16-2.727 1.06 0 1.71.594 1.9 1.326h1.19c-.205-1.313-1.299-2.386-3.09-2.386-2.064 0-3.377 1.49-3.377 3.787 0 2.345 1.32 3.842 3.384 3.842zm6.064-.13v-2.796l.704-.656L129.792 24h1.497l-3.384-4.21 3.172-3.16h-1.443l-3.199 3.22h-.11v-6.145h-1.175V24h1.176zm7.328.068a.891.891 0 00.888-.888.887.887 0 00-.888-.889.891.891 0 00-.889.889c0 .485.403.888.889.888zM662.41 24v-8.757h3.178v-1.107H658v1.107h3.179V24h1.23zm6.172 0v-4.361c0-1.244.725-2.078 2.044-2.078 1.114 0 1.702.649 1.702 1.955V24h1.176v-4.771c0-1.73-.984-2.728-2.543-2.728-1.128 0-1.9.478-2.27 1.292h-.109v-4.088h-1.176V24h1.176zm10.022.13c1.613 0 2.761-.78 3.103-2.037h-1.176c-.307.65-.95.998-1.9.998-1.251 0-2.065-.923-2.126-2.38v-.054h5.298v-.45c0-2.291-1.21-3.706-3.2-3.706-2.023 0-3.322 1.504-3.322 3.821 0 2.331 1.279 3.808 3.323 3.808zm1.961-4.423h-4.06c.089-1.306.91-2.167 2.085-2.167 1.169 0 1.948.861 1.975 2.167zm10.699 4.423c1.866 0 3.09-1.51 3.09-3.815 0-2.317-1.217-3.814-3.09-3.814-1.012 0-1.908.499-2.31 1.292h-.11v-4.088h-1.176V24h1.121v-1.176h.11c.464.82 1.34 1.306 2.365 1.306zm-.274-1.06c-1.34 0-2.174-1.052-2.174-2.755 0-1.702.834-2.754 2.174-2.754 1.347 0 2.147 1.032 2.147 2.754 0 1.723-.8 2.755-2.147 2.755zm7.656 1.06c1.128 0 1.915-.465 2.284-1.285h.11V24h1.12v-7.37h-1.176v4.362c0 1.292-.71 2.065-2.01 2.065-1.175 0-1.667-.616-1.667-1.942v-4.484h-1.176v4.771c0 1.744.861 2.728 2.515 2.728zm8.347-.075c.233 0 .458-.028.69-.069v-.99c-.218.02-.334.026-.546.026-.766 0-1.094-.369-1.094-1.237v-4.17h1.64v-.984h-1.64v-1.907h-1.176v1.907h-1.19v.984h1.19v4.47c0 1.41.609 1.97 2.126 1.97zm5.086 0c.233 0 .458-.028.69-.069v-.99c-.218.02-.334.026-.546.026-.766 0-1.094-.369-1.094-1.237v-4.17h1.64v-.984h-1.64v-1.907h-1.176v1.907h-1.19v.984h1.19v4.47c0 1.41.609 1.97 2.126 1.97zm5.496.075c2.099 0 3.398-1.45 3.398-3.815 0-2.372-1.3-3.814-3.398-3.814s-3.397 1.442-3.397 3.814c0 2.366 1.299 3.815 3.397 3.815zm0-1.06c-1.394 0-2.18-1.011-2.18-2.755 0-1.75.786-2.754 2.18-2.754 1.395 0 2.18 1.004 2.18 2.754 0 1.744-.785 2.755-2.18 2.755zm6.42.93v-4.361c0-1.292.758-2.078 1.934-2.078 1.175 0 1.736.628 1.736 1.955V24h1.176v-4.771c0-1.75-.923-2.728-2.577-2.728-1.128 0-1.846.478-2.215 1.292h-.11v-1.162h-1.12V24h1.175zm7.724-6.18l1.237-3.684h-1.333l-.759 3.684h.855zm5.858 6.31c1.675 0 2.953-.91 2.953-2.229 0-1.06-.67-1.66-2.057-1.996l-1.135-.273c-.868-.212-1.278-.527-1.278-1.032 0-.657.683-1.101 1.558-1.101.889 0 1.463.39 1.62.978h1.162c-.157-1.21-1.23-1.976-2.775-1.976-1.565 0-2.748.923-2.748 2.146 0 1.067.629 1.662 2.01 1.997l1.264.307c.787.192 1.17.533 1.17 1.04 0 .676-.712 1.148-1.703 1.148-.943 0-1.531-.397-1.73-1.019h-1.21c.13 1.224 1.259 2.01 2.9 2.01zm9.926-.13v-4.566c0-1.04.745-1.873 1.709-1.873.93 0 1.538.56 1.538 1.435V24h1.176v-4.737c0-.937.683-1.702 1.709-1.702 1.039 0 1.552.533 1.552 1.62V24h1.175v-5.093c0-1.545-.84-2.406-2.344-2.406-1.019 0-1.86.513-2.256 1.292h-.11c-.341-.766-1.039-1.292-2.037-1.292-.984 0-1.722.472-2.057 1.292h-.11v-1.162h-1.12V24h1.175zm14.034.13c2.099 0 3.398-1.45 3.398-3.815 0-2.372-1.3-3.814-3.398-3.814-2.099 0-3.397 1.442-3.397 3.814 0 2.366 1.298 3.815 3.397 3.815zm0-1.06c-1.394 0-2.18-1.011-2.18-2.755 0-1.75.786-2.754 2.18-2.754 1.395 0 2.18 1.004 2.18 2.754 0 1.744-.785 2.755-2.18 2.755zm7.97 1.06c1.02 0 1.894-.485 2.36-1.306h.109V24h1.12V13.705h-1.175v4.088h-.103c-.417-.807-1.285-1.292-2.31-1.292-1.873 0-3.097 1.504-3.097 3.814 0 2.318 1.21 3.815 3.097 3.815zm.274-1.06c-1.346 0-2.153-1.032-2.153-2.755 0-1.715.813-2.754 2.153-2.754 1.333 0 2.167 1.066 2.167 2.754 0 1.703-.827 2.755-2.167 2.755zm6.214-7.861c.451 0 .82-.37.82-.82 0-.451-.369-.82-.82-.82-.451 0-.82.368-.82.82 0 .45.369.82.82.82zm.588 8.791v-7.37h-1.176V24h1.176zm3.91 0v-6.385h1.689v-.984h-1.689v-.786c0-.807.356-1.217 1.203-1.217.212 0 .41.007.554.034v-.957a4.13 4.13 0 00-.793-.068c-1.401 0-2.14.704-2.14 2.174v.82h-1.223v.984h1.223V24h1.176zm4.013-8.791c.451 0 .82-.37.82-.82 0-.451-.369-.82-.82-.82-.451 0-.82.368-.82.82 0 .45.369.82.82.82zm.588 8.791v-7.37h-1.176V24h1.176zm5.195.13c1.613 0 2.762-.78 3.104-2.037h-1.176c-.308.65-.95.998-1.9.998-1.252 0-2.065-.923-2.127-2.38v-.054h5.298v-.45c0-2.291-1.21-3.706-3.199-3.706-2.023 0-3.322 1.504-3.322 3.821 0 2.331 1.278 3.808 3.322 3.808zm1.962-4.423h-4.06c.088-1.306.909-2.167 2.084-2.167 1.17 0 1.949.861 1.976 2.167zM796.51 24v-4.566c0-1.04.813-1.791 1.934-1.791.233 0 .657.04.752.068v-1.176a5.05 5.05 0 00-.588-.034c-.977 0-1.825.506-2.044 1.224h-.109V16.63h-1.121V24h1.176zm6.685.13c1.675 0 2.953-.91 2.953-2.229 0-1.06-.67-1.66-2.057-1.996l-1.135-.273c-.868-.212-1.278-.527-1.278-1.032 0-.657.683-1.101 1.558-1.101.889 0 1.463.39 1.62.978h1.163c-.158-1.21-1.23-1.976-2.776-1.976-1.565 0-2.748.923-2.748 2.146 0 1.067.629 1.662 2.01 1.997l1.265.307c.786.192 1.168.533 1.168 1.04 0 .676-.71 1.148-1.702 1.148-.943 0-1.53-.397-1.73-1.019h-1.21c.13 1.224 1.259 2.01 2.9 2.01zm5.77-.062a.891.891 0 00.889-.888.887.887 0 00-.89-.889.891.891 0 00-.888.889c0 .485.403.888.889.888z" fill="#373A3C" fill-rule="nonzero"/></g></svg>