<svg xmlns="http://www.w3.org/2000/svg" viewBox="0 0 380 110"><title>Lean BEM</title><path d="M36.775,45.041H65.5c14.475,0,19.018,7.084,19.018,14.476v.308c0,6.775-3.773,10.625-9.856,11.934,6.083.847,11.01,4.851,11.01,12.7v.308c0,9.625-6,15.322-21.019,15.322H36.775ZM60.721,65.83c3.234,0,4.543-1.078,4.543-3.541v-.308c0-2.464-1.232-3.774-4.543-3.774h-4V65.83Zm-.308,21.02c3.465,0,5.082-1.694,5.082-4.466v-.307c0-2.773-1.463-4.39-5.313-4.39H56.717V86.85Z" style="fill:#1b1b1b"/><path d="M105.382,91.932a9.157,9.157,0,0,1,9.393-9.24,9.33,9.33,0,0,1,9.7,9.24c0,5.158-4.081,9.239-9.7,9.239A9.111,9.111,0,0,1,105.382,91.932Z" style="fill:#1b1b1b"/><path d="M146.654,45.041H187.77v15.63H167.058v4.7h16.323V79.536H167.058v4.927h21.866v15.63h-42.27Z" style="fill:#1b1b1b"/><path d="M210.717,91.932a9.157,9.157,0,0,1,9.393-9.24,9.33,9.33,0,0,1,9.7,9.24c0,5.158-4.081,9.239-9.7,9.239A9.111,9.111,0,0,1,210.717,91.932Z" style="fill:#1b1b1b"/><path d="M251.989,45.041h26.332l7.239,22.021,7.468-22.021H318.9v55.052H298.5V70.834l-10.933,29.259h-6.93L270.16,70.834v29.259H251.989Z" style="fill:#1b1b1b"/><path d="M341.154,91.932a9.158,9.158,0,0,1,9.394-9.24,9.33,9.33,0,0,1,9.7,9.24c0,5.158-4.081,9.239-9.7,9.239A9.112,9.112,0,0,1,341.154,91.932Z" style="fill:#1b1b1b"/><path d="M7.529,100.6V96.622h7.618V93.03h3.041V100.6Z" style="fill:#1b1b1b"/><path d="M7.529,86.9V78.941h3.027v4.01h.909V79.79h2.743v3.161h.954V78.717h3.026V86.9Z" style="fill:#1b1b1b"/><path d="M7.529,70.173V65.06L18.188,61.8v4.234l-1.416.358V69.4l1.416.358v3.7Zm6.59-1.43v-1.7l-3.4.834Z" style="fill:#1b1b1b"/><path d="M7.529,56.085V51.658l4.95-2.311H7.529V45.829H18.188V49.6l-5.813,2.952h5.813v3.533Z" style="fill:#1b1b1b"/><path d="M83.773,12.813a4.574,4.574,0,0,0-1.117,3.234A4.544,4.544,0,0,0,89.2,20.011,4.866,4.866,0,0,0,91.23,13.6a4.673,4.673,0,0,0-4.667-2.4,4.155,4.155,0,0,0-2.79,1.616m2.435-6.466s.358-.03.75-.03c.3,0,.721.03.721.03a8.893,8.893,0,0,1,3.7,1.2,2.96,2.96,0,0,0,.36.206V6.607H96.4V24.882H91.742V23.724s-.148.106-.2.138a8.008,8.008,0,0,1-4.527,1.311A8.369,8.369,0,0,1,82.3,23.817a9.311,9.311,0,0,1-4.312-8.031,9.447,9.447,0,0,1,2.435-6.415,8.379,8.379,0,0,1,5.783-3.024Zm-61.024.26h4.649V16.636a4.6,4.6,0,0,0,.646,2.519,3.154,3.154,0,0,0,2.558,1.332,3.432,3.432,0,0,0,2.574-1.345,5.28,5.28,0,0,0,.748-2.506V6.607h4.662V24.882H36.359v-.7a7.907,7.907,0,0,1-4.5.99,6.717,6.717,0,0,1-4.64-2.346,8.956,8.956,0,0,1-2.051-5.963l.013-10.257Zm40.905,0c1.368,3.879,2.767,7.726,4.109,11.631.4-.909.769-1.893,1.115-2.869,1.018-2.871,2.026-5.827,3.044-8.762h4.972c-2.13,6.12-4.343,12.124-6.443,18.275H67.611C65.556,18.91,63.422,13.05,61.375,7.07c-.035-.1-.035-.1-.156-.463Zm-15.871-.26s.359-.03.75-.03c.3,0,.721.03.721.03a8.893,8.893,0,0,1,3.7,1.2,2.96,2.96,0,0,0,.36.206V6.607h4.662V24.882H55.753V23.724s-.149.106-.2.138a8,8,0,0,1-4.527,1.311,8.372,8.372,0,0,1-4.718-1.356A9.311,9.311,0,0,1,42,15.786a9.447,9.447,0,0,1,2.435-6.415,8.381,8.381,0,0,1,5.783-3.024Zm-2.435,6.466a4.574,4.574,0,0,0-1.116,3.234,4.543,4.543,0,0,0,6.544,3.964A4.866,4.866,0,0,0,55.24,13.6a4.672,4.672,0,0,0-4.667-2.4A4.157,4.157,0,0,0,47.783,12.813ZM10.868,26.172a4.6,4.6,0,0,0,3.4,1.429c3.556-.044,4.117-1.981,4.153-3.523,0-.015,0-.087,0-.087l-.051.035a7.921,7.921,0,0,1-3.652,1.148,9.7,9.7,0,0,1-5.057-1.151c-2.507-1.376-4.148-3.811-4.531-7.455,0,0-.036-.565-.036-.836,0-.318.036-.728.036-.728A9.884,9.884,0,0,1,7.715,9.111,8.733,8.733,0,0,1,13.3,6.347s.406-.029.7-.029.774.029.774.029A8.953,8.953,0,0,1,18.831,7.8V6.607h4.662v16.9c0,2.544-.506,4.466-2.056,6.023a10.033,10.033,0,0,1-7.786,2.529,9.107,9.107,0,0,1-5.823-2.619Zm1.464-14.61a4.689,4.689,0,0,0-2.536,3.7,4.6,4.6,0,0,0,6.9,4.538,4.765,4.765,0,0,0-.3-8.188A4.877,4.877,0,0,0,13.7,11.2a4.382,4.382,0,0,0-1.369.365Z" style="fill:#f4494d"/></svg>