<svg viewBox="0 0 586 231" fill="none" xmlns="http://www.w3.org/2000/svg">
<path d="M0.536011 103H57.56V98.536H5.72001V0.039978H0.536011V103Z" fill="#272B2D"/>
<path d="M101.45 104.152C117.002 104.152 128.666 96.232 132.122 82.264H127.226C124.202 94.072 114.41 99.832 101.45 99.832C82.1536 99.832 71.4976 86.872 71.3536 64.984H132.698V62.824C132.698 39.208 119.018 26.536 100.442 26.536C80.7136 26.536 66.3136 42.376 66.3136 64.84V65.992C66.3136 88.312 79.5616 104.152 101.45 104.152ZM71.4976 60.808C72.6496 42.664 84.4576 30.856 100.442 30.856C116.426 30.856 127.226 40.936 127.802 60.808H71.4976Z" fill="#272B2D"/>
<path d="M171.838 104.152C185.374 104.152 194.302 97.672 198.622 90.184V103H203.518V53.032C203.518 35.176 194.446 26.536 177.742 26.536C163.918 26.536 151.246 33.448 149.374 48.28H154.27C156.286 36.04 165.646 30.856 177.598 30.856C192.142 30.856 198.622 37.624 198.622 53.032V60.376H179.902C161.758 60.376 146.062 65.56 146.062 82.984C146.062 96.664 156.286 104.152 171.838 104.152ZM172.126 99.976C158.446 99.976 150.958 93.928 150.958 82.984C150.958 67.864 163.918 64.408 179.902 64.408H198.622V79.96C198.622 91.048 186.526 99.976 172.126 99.976Z" fill="#272B2D"/>
<path d="M226.195 103H231.091V57.352C231.091 40.072 245.059 30.856 258.451 30.856C272.707 30.856 281.203 38.632 281.203 56.344V103H286.099V56.488C286.099 35.464 275.443 26.536 259.171 26.536C245.203 26.536 234.547 35.032 231.091 44.104V27.688H226.195V103Z" fill="#272B2D"/>
<path d="M226.936 217H273.304C298.792 217 310.744 206.776 310.744 188.344V187.768C310.744 173.512 302.824 165.88 290.152 163.72C301.672 160.696 307.576 153.064 307.576 141.544V140.968C307.576 124.984 297.208 114.04 272.872 114.04H226.936V217ZM255.736 197.272V172.936H267.112C277.48 172.936 281.656 176.968 281.656 184.744V185.32C281.656 192.952 277.336 197.272 267.976 197.272H255.736ZM255.736 154.936V133.624H266.968C275.896 133.624 279.64 136.792 279.64 143.848V144.424C279.64 151.768 276.184 154.936 266.968 154.936H255.736Z" fill="#272B2D"/>
<path d="M353.077 217H426.517V194.248H382.453V175.528H415.717V154.504H382.453V136.792H424.213V114.04H353.077V217Z" fill="#272B2D"/>
<path d="M469.655 217H496.007V152.92L520.919 217H530.711L555.911 152.92V217H585.287V114.04H547.559L527.831 168.904L508.103 114.04H469.655V217Z" fill="#272B2D"/>
<path d="M429.064 183.024H463.624V168.624H429.064V183.024Z" fill="#272B2D"/>
<path d="M299 231H353V217H299V231Z" fill="#272B2D"/>
</svg>
