<svg xmlns="http://www.w3.org/2000/svg" viewBox="0 0 450 110">
  <style>
    .st0{fill:#1b1b1b}
  </style>
  <path d="M7.8 41.2h4.7v56.7h29.4v3.9H7.8V41.2z" class="st0"/>
  <path d="M47.3 80v-.7c0-13.4 8.5-22.6 20.3-22.6 10.7 0 19.4 6.9 19.4 21.6V80H51.9c.2 11.9 5.8 18.6 16.3 18.6 7.4 0 12.4-3 13.9-9.2h4.5c-1.9 8.5-8.9 13-18.4 13-12.7 0-20.9-9.1-20.9-22.4zm35-3.7c-.4-10.8-6.1-15.8-14.7-15.8s-14.7 6.1-15.5 15.8h30.2z" class="st0"/>
  <path d="M94.7 89.8c0-10.2 9.8-13.4 20.8-13.4h9.2v-4c0-8.3-3.4-11.9-11.2-11.9-6.7 0-11.4 2.9-12.5 9.4h-4.4c1-9.3 8.6-13.2 17-13.2 9.2 0 15.5 4.4 15.5 15.7v29.3h-4.5V95c-2.8 4.3-7.5 7.5-15 7.5-8.6-.1-14.9-4.3-14.9-12.7zm30-2.4v-7.5h-9.1c-9.2 0-16.4 1.9-16.4 9.9 0 5.7 3.6 9 10.8 9 8.2 0 14.7-4.8 14.7-11.4z" class="st0"/>
  <path d="M142.7 57.4h4.5V66c2-4.8 7.8-9.3 15.7-9.3 9.4 0 15.8 5.1 15.8 17.7v27.3h-4.5V74.2c0-9.4-4.4-13.6-12.3-13.6-7.4 0-14.7 4.9-14.7 14.2v26.9h-4.5V57.4z" class="st0"/>
  <path d="M191 41.2h27c14.3 0 20.4 6.4 20.4 15.8v.3c0 6.8-3.5 11.3-10.2 13 7.5 1.3 12.1 5.8 12.1 14.1v.3c0 10.8-7 16.9-22 16.9H191V41.2zm23.5 24c5.4 0 7.5-1.9 7.5-6.2v-.3c0-4.2-2.2-6-7.5-6h-6.6v12.5h6.6zm.6 24.9c5.5 0 8-2.5 8-7v-.3c0-4.6-2.5-6.9-8.6-6.9h-6.7v14.3h7.3z" class="st0"/>
  <path d="M244.9 94.1c0-4.7 3.6-8.6 8.6-8.6 5.1 0 8.9 3.8 8.9 8.6s-3.8 8.6-8.9 8.6c-5 0-8.6-3.8-8.6-8.6z" class="st0"/>
  <path d="M270 41.2h41.8v13.4h-24.6V65h19.6v12.4h-19.6v11h25.9v13.4H270V41.2z" class="st0"/>
  <path d="M319.9 94.1c0-4.7 3.6-8.6 8.6-8.6 5.1 0 8.9 3.8 8.9 8.6s-3.8 8.6-8.9 8.6c-5 0-8.6-3.8-8.6-8.6z" class="st0"/>
  <path d="M345.1 41.2h22.6l11.6 32.3 11.6-32.3h22.2v60.6h-17.3V64L381 101.7h-5.8L360.6 64v37.7h-15.5V41.2z" class="st0"/>
  <path d="M420.8 94.1c0-4.7 3.6-8.6 8.6-8.6 5.1 0 8.9 3.8 8.9 8.6s-3.8 8.6-8.9 8.6c-5 0-8.6-3.8-8.6-8.6z" class="st0"/>
  <g>
    <path fill="#f4494d" d="M83.8 12.8c-.6.7-1.2 1.8-1.1 3.2.1 1.9 1.2 3.2 2.4 3.9 1.3.7 3 .6 4.1.1 1.9-1 3.4-3.9 2-6.4-.7-1.4-2.5-2.7-4.7-2.4-1.2.2-2 .8-2.7 1.6m2.4-6.5h1.4c1.4.1 2.7.6 3.7 1.2.3.2.4.2.4.2V6.6h4.7v18.3h-4.7v-1.2s-.1.1-.2.1c-1.3.9-2.8 1.3-4.5 1.3-1.9 0-3.5-.6-4.7-1.4-2.4-1.6-4.3-4.3-4.3-8 0-2.8 1.1-4.8 2.4-6.4 1.4-1.6 3.2-2.7 5.8-3zm-61 .3h4.6v10s-.1 1.6.6 2.5c.8 1.1 1.9 1.3 2.6 1.3.7 0 1.8-.4 2.6-1.3.7-.9.7-2.5.7-2.5v-10H41v18.3h-4.7v-.7c-1.2.6-2.6 1.1-4.5 1-2.1-.1-3.5-1.1-4.6-2.3-1-1.1-2.1-3.1-2.1-6l.1-10.3zm40.9 0c1.4 3.9 2.8 7.7 4.1 11.6.4-.9.8-1.9 1.1-2.9 1-2.9 2-5.8 3-8.8h5c-2.1 6.1-4.3 12.1-6.4 18.3h-5.3c-2.1-6-4.2-11.8-6.2-17.8 0-.1 0-.1-.2-.5l4.9.1zm-15.9-.3h1.4c1.4.1 2.7.6 3.7 1.2.3.2.4.2.4.2V6.6h4.7v18.3h-4.7v-1.2s-.1.1-.2.1c-1.3.9-2.8 1.3-4.5 1.3-1.9 0-3.5-.6-4.7-1.4-2.4-1.6-4.3-4.3-4.3-8 0-2.8 1.1-4.8 2.4-6.4 1.4-1.6 3.2-2.7 5.8-3zm-2.4 6.5c-.6.7-1.2 1.8-1.1 3.2.1 1.9 1.2 3.2 2.4 3.9 1.3.7 3 .6 4.1.1 1.9-1 3.4-3.9 2-6.4-.7-1.4-2.5-2.7-4.7-2.4-1.2.2-2 .8-2.7 1.6zM10.9 26.2s1.2 1.5 3.4 1.4c3.6 0 4.1-2 4.2-3.5V24h-.1c-.9.6-2.2 1.1-3.7 1.1-1.5.1-3.4-.2-5.1-1.2-2.5-1.4-4.1-3.8-4.5-7.5v-.8-.7c.2-2.4 1.2-4.4 2.6-5.9 1.4-1.5 3.3-2.5 5.6-2.8h1.5c1.7.2 2.9.7 4.1 1.4V6.4h4.7v16.9c0 2.5-.5 4.5-2.1 6-1.7 1.7-4.5 2.7-7.8 2.5-2.4-.2-4.4-1.2-5.8-2.6l3-3zm1.4-14.6c-1.3.7-2.4 2.1-2.5 3.7-.4 4.2 4 6.4 6.9 4.5 1.1-.7 2.2-2.2 2.2-4 0-2-1.3-3.5-2.5-4.2-.7-.4-1.7-.5-2.7-.4-.5.1-1 .2-1.4.4z"/>
  </g>
</svg>
