<svg xmlns="http://www.w3.org/2000/svg" data-name="Layer 1" viewBox="0 0 257.35 114.35">
  <path fill="#e84b4f" d="M86.13 43.43V28.62h-57v57h57V70.77h-2.5v12.34H57.86l21.33-12.27h-5L55 81.84v-7.6l.42.73 1.73-1-.5-.87-1.65 1v-6.78a1.25 1.25 0 00.57-.16l7.77-4.48A1.26 1.26 0 0064 61.6v-8.94l5.69-3.28v.51h1V48.8l5.14-3 2.5-1.39V43l-12.27-7.14-8.21-4.74h25.78v12.31zM48.4 31.12h1.33l-8.21 4.74-9.87 5.7V31.12zM46 54.05v7.55a1.26 1.26 0 00.62 1.08l5.94 3.43v6.56l-.56-.31-.5.86 1 .6v8l-20.79-12v-24zm7.81 1.62L49.13 53 55 49.59l4.66 2.7zm-1.25 2.17v5.38l-4.06-2.35v-5.38zM31.65 83.11V72.67l18.08 10.44zM61.5 60.87L55 64.61v-6.77l6.5-3.74zm13.08-17.2l-12.43 7.17-6.54-3.77a1.22 1.22 0 00-1.25 0l-7.73 4.47-6.37-3.68-.16-.28-.16.1-6.94-4 20.79-12zM65.35 68.1l1.74-1 .5.87-1.74 1zm-25.06-6.41h-1v-2h1zm0 4h-1v-2h1zm23.33 3.41l.5.87-1.73 1-.5-.87zm-5.19 3l1.73-1 .5.87-1.73 1zM40.29 57.69h-1v-2h1zm9.48 14.53l-1.74-1 .5-.86 1.74 1zm-9.48-18.53h-1v-2h1zm6 16.53l-1.73-1 .5-.86 1.73 1zm-3.46-2l-1.73-1 .5-.86 1.73 1zm18-24.67l-1.74-1 .5-.87 1.74 1zm-10.4-2l.5.87-1.73 1-.5-.87zm-3.46 2l.5.87-1.73 1-.5-.87zm22.72 20.34h1v2.29l-1.37.82-.5-.87.87-.5zM43.57 45.58l.5.87-1.74 1-.5-.87zm8.66-5l1.73-1 .5.87-1.73 1zm5.19 1l-1.73-1 .5-.87 1.73 1zm10.39 6l-1.73-1 .5-.87 1.73 1zm2.88 6.34h-1v-2h1zm0 4h-1v-2h1zm0 4h-1v-2h1zm-6.34-16.37l-1.73-1 .5-.87 1.73 1zm12.45 4h4.61V62h6.06v3.57H76.8zm12.88 0h11.08v3.54h-6.5v2.76h5.18v3.27h-5.18v2.91h6.86v3.55H89.68zm17.6 0h5.94l5.09 16h-4.86l-.86-3h-5.31l-.85 3h-4.28zm.9 9.88h3.52L110 53.3zm12-9.88h5.18l5.13 9v-9h4v16H130l-5.85-10.07v10.13h-4zm21.83 0h7.15c3.79 0 5.4 1.7 5.4 4.19v.09a3.29 3.29 0 01-2.71 3.45 3.5 3.5 0 013.15 3.78v.09c0 2.87-1.86 4.46-5.83 4.46H142zm6.23 6.36c1.44 0 2-.49 2-1.63v-.09c0-1.1-.59-1.59-2-1.59h-1.74v3.31zm.16 6.59c1.46 0 2.13-.67 2.13-1.85v-.09c0-1.22-.65-1.84-2.26-1.84h-1.77v3.78zm8.43 1.06a2.24 2.24 0 012.29-2.27 2.27 2.27 0 110 4.53 2.23 2.23 0 01-2.32-2.23zm7.22-14h11.07v3.54h-6.5v2.76h5.18v3.27h-5.18v2.91h6.86v3.55H164zm13.76 14a2.24 2.24 0 012.29-2.27 2.27 2.27 0 110 4.53 2.23 2.23 0 01-2.32-2.23zm7.22-14h6l3.07 8.54 3.07-8.54H203v16h-4.58v-10l-3.92 10H193l-3.88-10v10H185zm20.6 14a2.24 2.24 0 012.29-2.27 2.27 2.27 0 110 4.53 2.23 2.23 0 01-2.32-2.23z"/>
</svg>
