<svg xmlns="http://www.w3.org/2000/svg" viewBox="0 0 339 121">
  <g fill="none" fill-rule="nonzero">
    <path fill="#0275D8" d="M323.997 11A4 4 0 01328 15.006v17.988A3.998 3.998 0 01323.997 37H220.003A4 4 0 01216 32.994V15.006A3.998 3.998 0 01220.003 11h103.994zm0 1H220.003a2.997 2.997 0 00-2.998 2.829l-.005.177v17.988a3 3 0 002.826 3l.177.006h103.994a2.997 2.997 0 002.998-2.829l.005-.177V15.006a3 3 0 00-2.826-3l-.177-.006z"/>
    <path fill="#0275D8" d="M228.77 28c2.31 0 3.647-1.429 3.647-3.894 0-2.439-1.348-3.856-3.646-3.856h-2.799V28h2.799zm-.134-1.037h-1.46v-5.677h1.46c1.606 0 2.557 1.047 2.557 2.836 0 1.805-.935 2.841-2.557 2.841zm9.712 1.225c2.24 0 3.615-1.58 3.615-4.066 0-2.492-1.386-4.06-3.615-4.06-2.223 0-3.62 1.563-3.62 4.06 0 2.492 1.364 4.066 3.62 4.066zm0-1.063c-1.493 0-2.39-1.182-2.39-3.003 0-1.837.924-2.997 2.39-2.997 1.466 0 2.385 1.16 2.385 2.997 0 1.82-.913 3.003-2.385 3.003zm8.675.875l1.66-5.795h.075L250.423 28h1.134l2.094-7.75H252.4l-1.418 6.026h-.075l-1.628-6.026h-1.117l-1.617 6.026h-.075l-1.423-6.026h-1.252l2.09 7.75h1.138zm10.25 0v-5.629h.085l3.98 5.629h1.085v-7.75h-1.17v5.64h-.086l-3.98-5.64h-1.085V28h1.17zm12.929 0v-1.047h-3.631V20.25h-1.203V28h4.834zm5.538.188c2.24 0 3.615-1.58 3.615-4.066 0-2.492-1.386-4.06-3.615-4.06-2.223 0-3.62 1.563-3.62 4.06 0 2.492 1.364 4.066 3.62 4.066zm0-1.063c-1.493 0-2.39-1.182-2.39-3.003 0-1.837.924-2.997 2.39-2.997 1.467 0 2.385 1.16 2.385 2.997 0 1.82-.913 3.003-2.385 3.003zm6.516.875l.715-2.095h2.954l.709 2.095h1.278l-2.798-7.75h-1.295L281.021 28h1.235zm3.363-3.062h-2.342l1.128-3.319h.091l1.123 3.32zm7.44 3.062c2.31 0 3.647-1.429 3.647-3.894 0-2.439-1.349-3.856-3.647-3.856h-2.799V28h2.799zm-.135-1.037h-1.46v-5.677h1.46c1.606 0 2.557 1.047 2.557 2.836 0 1.805-.935 2.841-2.557 2.841zM309.993 17a.5.5 0 00-.492.5v8.795l-3.144-3.145a.5.5 0 00-.706.707l3.996 3.999a.08.08 0 00.006.005l.016.015.021.018v.001l.014.01h.001c.007.005.015.012.024.017l.002.002.018.01.002.002.02.011.003.002.018.008.003.001a.619.619 0 00.02.01h.004c.004.003.013.005.022.009h.003l.018.007h.003l.023.006h.003a.2.2 0 00.02.005h.003c.005.001.014.003.022.003h.003c.006.002.014.003.023.003h.001a.46.46 0 00.026 0l.013.001h.012c.015 0 .03-.001.044-.003h-.002.006-.003a.46.46 0 00.034-.006h-.003l.027-.005h-.003a.396.396 0 00.022-.005l-.003.001.033-.01h-.003c.01-.002.015-.005.021-.007l-.003.001a.29.29 0 00.03-.012h-.004a.711.711 0 00.04-.02l-.002.002a.013.013 0 00.003-.002l-.001.001.03-.019-.002.002.02-.015v.001a.574.574 0 00.032-.026l.003-.003.023-.02 3.996-3.998a.5.5 0 00-.364-.858h.001a.499.499 0 00-.343.15l-3.143 3.146v-8.789-.006a.5.5 0 00-.5-.5h-.008V17zm-6.486 13h-.007a.5.5 0 100 1h13a.5.5 0 100-1h-12.993zM192.007 10A4 4 0 01196 14.005v44.99A3.995 3.995 0 01192.007 63H13.993A4 4 0 0110 58.995v-44.99A3.995 3.995 0 0113.993 10h178.014zm0 1H13.993a2.994 2.994 0 00-2.988 2.828l-.005.177v44.99a3 3 0 002.817 3l.176.005h178.014a2.994 2.994 0 002.988-2.828l.005-.177v-44.99a3 3 0 00-2.817-3l-.176-.005z"/>
    <path fill="#0275D8" d="M48.3 44c3.98 0 6.317-2.477 6.317-6.698 0-4.212-2.347-6.69-6.318-6.69h-4.592V44h4.592zm-.112-1.503h-2.811V32.116h2.811c2.969 0 4.722 1.93 4.722 5.204 0 3.266-1.735 5.177-4.722 5.177zm12.98 1.68c2.848 0 4.61-1.968 4.61-5.177 0-3.22-1.762-5.177-4.61-5.177-2.849 0-4.611 1.957-4.611 5.177 0 3.21 1.762 5.176 4.61 5.176zm0-1.439c-1.893 0-2.96-1.373-2.96-3.738 0-2.375 1.067-3.74 2.96-3.74 1.892 0 2.959 1.365 2.959 3.74 0 2.365-1.067 3.738-2.96 3.738zM71.205 44l2.227-7.737h.148L75.817 44h1.623l2.802-10.001h-1.605l-1.967 7.997h-.148L74.286 34h-1.53l-2.236 7.997h-.149L68.404 34H66.79L69.592 44h1.614zm12.516 0v-5.919c0-1.753 1.03-2.82 2.625-2.82 1.596 0 2.357.853 2.357 2.653V44h1.595v-6.476c0-2.375-1.252-3.701-3.497-3.701-1.531 0-2.505.65-3.006 1.753h-.149V34h-1.521V44h1.596zm10.929 0V30.028h-1.596V44h1.596zm6.958.176c2.849 0 4.611-1.967 4.611-5.176 0-3.22-1.762-5.177-4.61-5.177-2.849 0-4.611 1.957-4.611 5.177 0 3.21 1.762 5.176 4.61 5.176zm0-1.438c-1.892 0-2.96-1.373-2.96-3.738 0-2.375 1.068-3.74 2.96-3.74 1.893 0 2.96 1.365 2.96 3.74 0 2.365-1.067 3.738-2.96 3.738zm9.65 1.438c1.335 0 2.43-.584 3.08-1.651h.148V44h1.521v-6.847c0-2.078-1.363-3.33-3.803-3.33-2.134 0-3.711 1.057-3.925 2.662h1.615c.222-.788 1.057-1.243 2.254-1.243 1.494 0 2.264.677 2.264 1.911v.91l-2.886.176c-2.328.139-3.646 1.169-3.646 2.96 0 1.827 1.438 2.977 3.377 2.977zm.296-1.4c-1.16 0-2.022-.594-2.022-1.615 0-1.002.668-1.53 2.19-1.633l2.69-.176v.919c0 1.428-1.216 2.504-2.858 2.504zm10.855 1.4c1.382 0 2.57-.658 3.2-1.772h.15V44h1.52V30.028h-1.595v5.548h-.14c-.565-1.095-1.743-1.753-3.135-1.753-2.542 0-4.202 2.04-4.202 5.177 0 3.145 1.642 5.176 4.202 5.176zm.371-1.438c-1.827 0-2.922-1.4-2.922-3.738 0-2.33 1.104-3.74 2.922-3.74 1.81 0 2.941 1.448 2.941 3.74 0 2.31-1.122 3.738-2.94 3.738zM154.99 27a.714.714 0 00-.703.714v12.565l-4.491-4.493a.714.714 0 00-1.009 1.01l5.709 5.712a.113.113 0 00.008.007l.001.001.022.02v.002l.03.025.001.001c.005.004.012.01.02.014l.001.001.034.024.003.002.026.016.003.002.03.016.003.002a.206.206 0 00.025.012l.005.001.029.014.004.001c.007.004.02.007.032.012l.005.001.025.009.005.001.032.008h.004a.285.285 0 00.03.007h.004a.444.444 0 00.03.005h.004a.393.393 0 00.034.004h.002l.037.001h.035a.696.696 0 00.063-.004h-.003l.01-.001h-.005a.658.658 0 00.048-.007h-.004l.039-.008-.005.001a.565.565 0 00.032-.008l-.005.001.047-.014-.005.001c.014-.004.022-.008.03-.011l-.004.002a.415.415 0 00.042-.018l-.004.002.058-.03-.004.003.005-.003-.003.001a.59.59 0 00.043-.026l-.002.001.03-.02-.002.001a.82.82 0 00.047-.037l.004-.004.033-.03 5.708-5.71a.714.714 0 00-.52-1.225l.002-.001a.712.712 0 00-.49.215l-4.491 4.493V27.726v-.01a.714.714 0 00-.714-.713h-.01V27zm-9.266 18.572h-.01a.714.714 0 100 1.428H164.286a.714.714 0 100-1.428h-18.562z"/>
    <path fill="#D73038" d="M49.301 106.038c.629 0 1.15-.527 1.15-1.174 0-.641-.521-1.168-1.15-1.168-.628 0-1.149.527-1.149 1.168 0 .647.52 1.174 1.15 1.174zm8.468.076c1.593 0 2.634-1.149 2.634-2.92v-1.282c0-1.765-1.04-2.913-2.634-2.913-.997 0-1.727.425-2.031 1.18h-.114v-3.77h-1.099V106h1.06v-1.054h.121c.356.762 1.08 1.168 2.063 1.168zm-.317-.984c-1.13 0-1.854-.812-1.854-2.088v-.99c0-1.27.724-2.082 1.854-2.082 1.142 0 1.866.812 1.866 2.082v.99c0 1.27-.724 2.088-1.866 2.088zm7.414.997c1.047 0 1.834-.482 2.202-1.34h.09V106h1.034v-6.887h-1.08v4.056c0 1.174-.76 1.968-1.897 1.968-1.073 0-1.58-.584-1.58-1.828v-4.196h-1.08v4.469c0 1.65.813 2.545 2.31 2.545zm9.87-.095c.33 0 1.168-.032 1.34-.064v-.914c-.184.02-.876.038-1.264.038-.97 0-1.498-.406-1.498-1.155v-3.885h2.78v-.92h-2.792v-1.866h-1.067v1.866h-1.834v.92h1.834v3.898c0 1.434.794 2.082 2.501 2.082zm8.036 0c.33 0 1.168-.032 1.34-.064v-.914c-.184.02-.876.038-1.263.038-.972 0-1.498-.406-1.498-1.155v-3.885h2.78v-.92h-2.793v-1.866H80.27v1.866h-1.834v.92h1.834v3.898c0 1.434.794 2.082 2.501 2.082zm6.71.095c1.822 0 2.983-1.187 2.983-3.047v-1.04c0-1.86-1.161-3.048-2.983-3.048s-2.983 1.187-2.983 3.047v1.041c0 1.86 1.161 3.047 2.983 3.047zm0-.959c-1.18 0-1.917-.831-1.917-2.19v-.844c0-1.352.736-2.19 1.917-2.19 1.18 0 1.917.838 1.917 2.19v.845c0 1.358-.736 2.19-1.917 2.19zm6.297.832v-4.056c0-1.174.762-1.968 1.898-1.968 1.073 0 1.58.584 1.58 1.828V106h1.08v-4.469c0-1.65-.813-2.545-2.311-2.545-1.047 0-1.835.482-2.203 1.34h-.089v-1.213H94.7V106h1.079zm9.775.038c.629 0 1.15-.527 1.15-1.174 0-.641-.521-1.168-1.15-1.168-.628 0-1.149.527-1.149 1.168 0 .647.52 1.174 1.15 1.174zm11.394-3.599v-1.003h-6.716v1.003h6.716zm5.11 3.675c1.593 0 2.634-1.149 2.634-2.92v-1.282c0-1.765-1.04-2.913-2.634-2.913-.996 0-1.726.425-2.031 1.18h-.114v-3.77h-1.099V106h1.06v-1.054h.121c.356.762 1.08 1.168 2.063 1.168zm-.317-.984c-1.13 0-1.854-.812-1.854-2.088v-.99c0-1.27.724-2.082 1.854-2.082 1.142 0 1.866.812 1.866 2.082v.99c0 1.27-.724 2.088-1.866 2.088zm8.042-7.706c.508 0 .895-.38.895-.888a.872.872 0 00-.895-.883.872.872 0 00-.895.883c0 .507.387.888.895.888zm2.888 8.576v-.895h-2.278v-5.992h-3.41v.895h2.343v5.097h-2.361V106h5.706zm4.825 2.583c1.866 0 2.97-.964 2.97-2.583v-6.887H139.4v1.066h-.12c-.299-.742-1.054-1.18-2.051-1.18-1.612 0-2.666 1.142-2.666 2.913v1.238c0 1.765 1.047 2.913 2.64 2.913 1.004 0 1.765-.438 2.07-1.161h.114v1.073c0 1.104-.666 1.713-1.872 1.713-.92 0-1.613-.374-1.752-.945h-1.067c.14 1.142 1.206 1.84 2.8 1.84zm.031-3.497c-1.142 0-1.879-.825-1.879-2.088v-.946c0-1.263.737-2.082 1.88-2.082 1.136 0 1.866.812 1.866 2.082v.946c0 1.27-.73 2.088-1.867 2.088zM220.265 106.038c.629 0 1.15-.527 1.15-1.174 0-.641-.521-1.168-1.15-1.168-.628 0-1.149.527-1.149 1.168 0 .647.52 1.174 1.15 1.174zm8.468.076c1.593 0 2.634-1.149 2.634-2.92v-1.282c0-1.765-1.04-2.913-2.634-2.913-.997 0-1.727.425-2.031 1.18h-.115v-3.77h-1.098V106h1.06v-1.054h.12c.356.762 1.08 1.168 2.064 1.168zm-.317-.984c-1.13 0-1.854-.812-1.854-2.088v-.99c0-1.27.724-2.082 1.854-2.082 1.142 0 1.866.812 1.866 2.082v.99c0 1.27-.724 2.088-1.866 2.088zm7.414.997c1.047 0 1.834-.482 2.202-1.34h.09V106h1.034v-6.887h-1.08v4.056c0 1.174-.761 1.968-1.897 1.968-1.073 0-1.58-.584-1.58-1.828v-4.196h-1.08v4.469c0 1.65.813 2.545 2.31 2.545zm9.87-.095c.33 0 1.168-.032 1.34-.064v-.914c-.185.02-.876.038-1.264.038-.97 0-1.498-.406-1.498-1.155v-3.885h2.78v-.92h-2.792v-1.866h-1.067v1.866h-1.834v.92h1.834v3.898c0 1.434.794 2.082 2.501 2.082zm8.036 0c.33 0 1.168-.032 1.34-.064v-.914c-.184.02-.876.038-1.263.038-.972 0-1.499-.406-1.499-1.155v-3.885h2.78v-.92h-2.792v-1.866h-1.067v1.866h-1.834v.92h1.834v3.898c0 1.434.794 2.082 2.501 2.082zm6.71.095c1.822 0 2.983-1.187 2.983-3.047v-1.04c0-1.86-1.161-3.048-2.983-3.048s-2.984 1.187-2.984 3.047v1.041c0 1.86 1.162 3.047 2.984 3.047zm0-.959c-1.18 0-1.917-.831-1.917-2.19v-.844c0-1.352.736-2.19 1.917-2.19 1.18 0 1.917.838 1.917 2.19v.845c0 1.358-.737 2.19-1.917 2.19zm6.297.832v-4.056c0-1.174.761-1.968 1.898-1.968 1.072 0 1.58.584 1.58 1.828V106h1.08v-4.469c0-1.65-.813-2.545-2.311-2.545-1.048 0-1.835.482-2.203 1.34h-.089v-1.213h-1.034V106h1.079zm9.775.038c.628 0 1.149-.527 1.149-1.174 0-.641-.52-1.168-1.149-1.168-.628 0-1.149.527-1.149 1.168 0 .647.52 1.174 1.15 1.174zm11.394-3.599v-1.003h-6.716v1.003h6.716zm4.691 3.688c1.631 0 2.691-.825 2.691-2.095 0-.996-.609-1.58-1.948-1.885l-.971-.222c-.864-.19-1.22-.489-1.22-1.016 0-.628.566-1.034 1.442-1.034.806 0 1.383.368 1.51.97h1.041c-.127-1.148-1.098-1.866-2.532-1.866-1.517 0-2.533.8-2.533 1.994 0 .977.616 1.606 1.86 1.891l1.022.235c.876.197 1.212.489 1.212 1.035 0 .66-.596 1.085-1.536 1.085-.889 0-1.498-.368-1.657-1.003h-1.098c.12 1.181 1.156 1.911 2.717 1.911zm5.675-.127v-4.646c0-.857.38-1.384.99-1.384.584 0 .889.438.889 1.27V106h.965v-4.646c0-.857.368-1.384.97-1.384.578 0 .883.438.883 1.276V106h.971v-5.072c0-1.276-.501-1.942-1.46-1.942-.692 0-1.244.419-1.422 1.079h-.114c-.146-.68-.603-1.08-1.25-1.08-.648 0-1.143.407-1.314 1.099h-.115v-.971h-.964V106h.97zm9.686.12c1.003 0 1.752-.412 2.082-1.148h.108v1.034h1.029v-4.716c0-1.435-.927-2.26-2.546-2.26-1.409 0-2.475.756-2.602 1.86h1.06c.177-.59.736-.927 1.53-.927.958 0 1.485.476 1.485 1.34v.622l-1.892.095c-1.568.083-2.444.806-2.444 2.025 0 1.25.876 2.076 2.19 2.076zm.311-.945c-.87 0-1.409-.445-1.409-1.168 0-.717.508-1.13 1.473-1.174l1.77-.083v.813c0 .92-.793 1.612-1.834 1.612zm11.433.825v-.895h-2.273v-8.696h-3.415v.895h2.336v7.801h-2.355V106h5.707zm8.036 0v-.895h-2.273v-8.696h-3.415v.895h2.336v7.801h-2.355V106h5.707z"/>
    <path fill="#9F9F9F" d="M100.697 72.375h1v20.997h-1zM272.906 43.502l1-.004.188 50.125-1 .004z"/>
  </g>
</svg>
